<?xml version="1.0" encoding="utf-8"?>
<svg xmlns="http://www.w3.org/2000/svg" fill="none" height="291" viewBox="0 0 231 291" width="231">
<g clip-path="url(#clip0_1_10130)">
<rect fill="#EEAAFD" height="338" rx="16" width="512"/>
<g filter="url(#filter0_d_1_10130)">
<path d="M32 40C32 35.5817 35.5817 32 40 32H399C403.418 32 407 35.5817 407 40V396C407 400.418 403.418 404 399 404H40C35.5817 404 32 400.418 32 396V40Z" fill="#F2F4F7"/>
<path d="M65.5753 64.1293H64.0241C63.9645 63.7978 63.8535 63.5062 63.6911 63.2543C63.5286 63.0024 63.3298 62.7886 63.0945 62.6129C62.8591 62.4373 62.5956 62.3047 62.304 62.2152C62.0156 62.1257 61.709 62.081 61.3842 62.081C60.7976 62.081 60.2723 62.2285 59.8082 62.5234C59.3475 62.8184 58.983 63.2509 58.7145 63.821C58.4493 64.3911 58.3168 65.0871 58.3168 65.9091C58.3168 66.7377 58.4493 67.437 58.7145 68.0071C58.983 68.5772 59.3492 69.008 59.8132 69.2997C60.2772 69.5914 60.7992 69.7372 61.3793 69.7372C61.7008 69.7372 62.0057 69.6941 62.294 69.608C62.5857 69.5185 62.8492 69.3875 63.0845 69.2152C63.3198 69.0429 63.5187 68.8324 63.6811 68.5838C63.8468 68.3319 63.9612 68.0436 64.0241 67.7188L65.5753 67.7237C65.4924 68.2242 65.3317 68.6849 65.093 69.1058C64.8577 69.5234 64.5545 69.8847 64.1832 70.1896C63.8153 70.4912 63.3944 70.7249 62.9205 70.8906C62.4465 71.0563 61.9295 71.1392 61.3693 71.1392C60.4877 71.1392 59.7022 70.9304 59.0128 70.5128C58.3234 70.0919 57.7798 69.4903 57.3821 68.7081C56.9877 67.9259 56.7905 66.9929 56.7905 65.9091C56.7905 64.822 56.9893 63.889 57.3871 63.1101C57.7848 62.3279 58.3284 61.728 59.0178 61.3104C59.7071 60.8894 60.491 60.679 61.3693 60.679C61.9096 60.679 62.4134 60.7569 62.8807 60.9126C63.3513 61.0651 63.7739 61.2905 64.1484 61.5888C64.523 61.8838 64.8329 62.245 65.0781 62.6726C65.3234 63.0968 65.4891 63.5824 65.5753 64.1293ZM68.7807 66.4659V71H67.2942V60.8182H68.7608V64.6065H68.8553C69.0343 64.1955 69.3077 63.8691 69.6756 63.6271C70.0435 63.3852 70.5241 63.2642 71.1174 63.2642C71.641 63.2642 72.0984 63.3719 72.4895 63.5874C72.8839 63.8028 73.1889 64.1243 73.4043 64.5518C73.623 64.9761 73.7324 65.5064 73.7324 66.1428V71H72.2459V66.3217C72.2459 65.7616 72.1017 65.3274 71.8134 65.0192C71.525 64.7076 71.124 64.5518 70.6103 64.5518C70.2589 64.5518 69.9441 64.6264 69.6657 64.7756C69.3906 64.9247 69.1735 65.1435 69.0144 65.4318C68.8586 65.7169 68.7807 66.0616 68.7807 66.4659ZM78.9327 71.1541C78.2168 71.1541 77.592 70.9901 77.0584 70.6619C76.5248 70.3338 76.1105 69.8748 75.8155 69.2848C75.5205 68.6948 75.373 68.0054 75.373 67.2166C75.373 66.4245 75.5205 65.7318 75.8155 65.1385C76.1105 64.5452 76.5248 64.0845 77.0584 63.7564C77.592 63.4283 78.2168 63.2642 78.9327 63.2642C79.6486 63.2642 80.2734 63.4283 80.807 63.7564C81.3406 64.0845 81.7549 64.5452 82.0499 65.1385C82.3449 65.7318 82.4924 66.4245 82.4924 67.2166C82.4924 68.0054 82.3449 68.6948 82.0499 69.2848C81.7549 69.8748 81.3406 70.3338 80.807 70.6619C80.2734 70.9901 79.6486 71.1541 78.9327 71.1541ZM78.9377 69.9062C79.4017 69.9062 79.7862 69.7836 80.0911 69.5384C80.396 69.2931 80.6214 68.9666 80.7672 68.5589C80.9164 68.1513 80.9909 67.7022 80.9909 67.2116C80.9909 66.7244 80.9164 66.277 80.7672 65.8693C80.6214 65.4583 80.396 65.1286 80.0911 64.88C79.7862 64.6314 79.4017 64.5071 78.9377 64.5071C78.4703 64.5071 78.0826 64.6314 77.7743 64.88C77.4694 65.1286 77.2424 65.4583 77.0932 65.8693C76.9474 66.277 76.8745 66.7244 76.8745 67.2116C76.8745 67.7022 76.9474 68.1513 77.0932 68.5589C77.2424 68.9666 77.4694 69.2931 77.7743 69.5384C78.0826 69.7836 78.4703 69.9062 78.9377 69.9062ZM87.3683 71.1541C86.6523 71.1541 86.0276 70.9901 85.494 70.6619C84.9603 70.3338 84.546 69.8748 84.2511 69.2848C83.9561 68.6948 83.8086 68.0054 83.8086 67.2166C83.8086 66.4245 83.9561 65.7318 84.2511 65.1385C84.546 64.5452 84.9603 64.0845 85.494 63.7564C86.0276 63.4283 86.6523 63.2642 87.3683 63.2642C88.0842 63.2642 88.7089 63.4283 89.2425 63.7564C89.7762 64.0845 90.1905 64.5452 90.4854 65.1385C90.7804 65.7318 90.9279 66.4245 90.9279 67.2166C90.9279 68.0054 90.7804 68.6948 90.4854 69.2848C90.1905 69.8748 89.7762 70.3338 89.2425 70.6619C88.7089 70.9901 88.0842 71.1541 87.3683 71.1541ZM87.3732 69.9062C87.8372 69.9062 88.2217 69.7836 88.5266 69.5384C88.8316 69.2931 89.0569 68.9666 89.2028 68.5589C89.3519 68.1513 89.4265 67.7022 89.4265 67.2116C89.4265 66.7244 89.3519 66.277 89.2028 65.8693C89.0569 65.4583 88.8316 65.1286 88.5266 64.88C88.2217 64.6314 87.8372 64.5071 87.3732 64.5071C86.9059 64.5071 86.5181 64.6314 86.2099 64.88C85.9049 65.1286 85.6779 65.4583 85.5288 65.8693C85.3829 66.277 85.31 66.7244 85.31 67.2116C85.31 67.7022 85.3829 68.1513 85.5288 68.5589C85.6779 68.9666 85.9049 69.2931 86.2099 69.5384C86.5181 69.7836 86.9059 69.9062 87.3732 69.9062ZM98.3095 65.228L96.9622 65.4666C96.9058 65.2943 96.8163 65.1302 96.6937 64.9744C96.5744 64.8187 96.412 64.6911 96.2065 64.5916C96.001 64.4922 95.7441 64.4425 95.4359 64.4425C95.015 64.4425 94.6636 64.5369 94.3819 64.7259C94.1002 64.9115 93.9593 65.1518 93.9593 65.4467C93.9593 65.7019 94.0538 65.9074 94.2427 66.0632C94.4316 66.219 94.7366 66.3466 95.1575 66.446L96.3706 66.7244C97.0732 66.8868 97.5969 67.1371 97.9416 67.4751C98.2863 67.8132 98.4586 68.2524 98.4586 68.7926C98.4586 69.25 98.3261 69.6577 98.0609 70.0156C97.7991 70.3703 97.4328 70.6487 96.9622 70.8509C96.4949 71.053 95.9529 71.1541 95.3365 71.1541C94.4814 71.1541 93.7837 70.9718 93.2434 70.6072C92.7032 70.2393 92.3717 69.7173 92.2491 69.0412L93.6859 68.8224C93.7754 69.197 93.9593 69.4804 94.2377 69.6726C94.5162 69.8615 94.8791 69.956 95.3265 69.956C95.8137 69.956 96.2032 69.8549 96.4949 69.6527C96.7865 69.4472 96.9324 69.197 96.9324 68.902C96.9324 68.6634 96.8429 68.4628 96.6639 68.3004C96.4882 68.138 96.2181 68.0154 95.8535 67.9325L94.5609 67.6491C93.8483 67.4867 93.3213 67.2282 92.9799 66.8736C92.6419 66.5189 92.4728 66.0698 92.4728 65.5263C92.4728 65.0755 92.5988 64.6811 92.8507 64.343C93.1026 64.005 93.4506 63.7415 93.8947 63.5526C94.3388 63.3603 94.8476 63.2642 95.421 63.2642C96.2463 63.2642 96.8959 63.4432 97.3699 63.8011C97.8438 64.1558 98.157 64.6314 98.3095 65.228ZM103.384 71.1541C102.632 71.1541 101.984 70.9934 101.44 70.6719C100.9 70.3471 100.482 69.8913 100.188 69.3047C99.8958 68.7147 99.75 68.0237 99.75 67.2315C99.75 66.4493 99.8958 65.7599 100.188 65.1634C100.482 64.5668 100.893 64.1011 101.42 63.7663C101.951 63.4316 102.571 63.2642 103.28 63.2642C103.711 63.2642 104.128 63.3355 104.533 63.478C104.937 63.6205 105.3 63.8442 105.621 64.1491C105.943 64.4541 106.196 64.8501 106.382 65.3374C106.568 65.8213 106.661 66.4096 106.661 67.1023V67.6293H100.59V66.5156H105.204C105.204 66.1245 105.124 65.7782 104.965 65.4766C104.806 65.1716 104.582 64.9313 104.294 64.7557C104.009 64.58 103.674 64.4922 103.29 64.4922C102.872 64.4922 102.508 64.5949 102.196 64.8004C101.888 65.0026 101.649 65.2678 101.48 65.5959C101.314 65.9207 101.232 66.2737 101.232 66.6548V67.5249C101.232 68.0353 101.321 68.4695 101.5 68.8274C101.682 69.1854 101.936 69.4588 102.261 69.6477C102.585 69.8333 102.965 69.9261 103.399 69.9261C103.681 69.9261 103.938 69.8864 104.17 69.8068C104.402 69.724 104.602 69.6013 104.771 69.4389C104.94 69.2765 105.07 69.076 105.159 68.8374L106.566 69.0909C106.453 69.5052 106.251 69.8681 105.96 70.1797C105.671 70.4879 105.308 70.7282 104.871 70.9006C104.437 71.0696 103.941 71.1541 103.384 71.1541ZM111.632 62.1406V60.8182H119.512V62.1406H116.335V71H114.804V62.1406H111.632ZM121.134 71V63.3636H122.621V71H121.134ZM121.885 62.1854C121.626 62.1854 121.404 62.0992 121.219 61.9268C121.036 61.7512 120.945 61.5424 120.945 61.3004C120.945 61.0552 121.036 60.8464 121.219 60.674C121.404 60.4983 121.626 60.4105 121.885 60.4105C122.143 60.4105 122.364 60.4983 122.546 60.674C122.732 60.8464 122.824 61.0552 122.824 61.3004C122.824 61.5424 122.732 61.7512 122.546 61.9268C122.364 62.0992 122.143 62.1854 121.885 62.1854ZM124.62 71V63.3636H126.047V64.6065H126.142C126.301 64.1856 126.561 63.8575 126.922 63.6222C127.283 63.3835 127.716 63.2642 128.22 63.2642C128.73 63.2642 129.158 63.3835 129.502 63.6222C129.85 63.8608 130.107 64.1889 130.273 64.6065H130.353C130.535 64.1989 130.825 63.8741 131.223 63.6321C131.62 63.3868 132.094 63.2642 132.645 63.2642C133.337 63.2642 133.902 63.4813 134.34 63.9155C134.781 64.3497 135.001 65.0043 135.001 65.8793V71H133.515V66.0185C133.515 65.5014 133.374 65.1269 133.092 64.8949C132.81 64.6629 132.474 64.5469 132.083 64.5469C131.599 64.5469 131.223 64.696 130.954 64.9943C130.686 65.2893 130.551 65.6688 130.551 66.1328V71H129.07V65.924C129.07 65.5097 128.941 65.1766 128.682 64.9247C128.424 64.6728 128.087 64.5469 127.673 64.5469C127.391 64.5469 127.131 64.6214 126.892 64.7706C126.657 64.9164 126.467 65.1203 126.321 65.3821C126.178 65.6439 126.107 65.9472 126.107 66.2919V71H124.62ZM140.285 71.1541C139.532 71.1541 138.884 70.9934 138.341 70.6719C137.8 70.3471 137.383 69.8913 137.088 69.3047C136.796 68.7147 136.65 68.0237 136.65 67.2315C136.65 66.4493 136.796 65.7599 137.088 65.1634C137.383 64.5668 137.794 64.1011 138.321 63.7663C138.851 63.4316 139.471 63.2642 140.18 63.2642C140.611 63.2642 141.029 63.3355 141.433 63.478C141.837 63.6205 142.2 63.8442 142.522 64.1491C142.843 64.4541 143.097 64.8501 143.282 65.3374C143.468 65.8213 143.561 66.4096 143.561 67.1023V67.6293H137.491V66.5156H142.104C142.104 66.1245 142.025 65.7782 141.866 65.4766C141.706 65.1716 141.483 64.9313 141.194 64.7557C140.909 64.58 140.575 64.4922 140.19 64.4922C139.773 64.4922 139.408 64.5949 139.096 64.8004C138.788 65.0026 138.55 65.2678 138.381 65.5959C138.215 65.9207 138.132 66.2737 138.132 66.6548V67.5249C138.132 68.0353 138.221 68.4695 138.4 68.8274C138.583 69.1854 138.836 69.4588 139.161 69.6477C139.486 69.8333 139.865 69.9261 140.3 69.9261C140.581 69.9261 140.838 69.8864 141.07 69.8068C141.302 69.724 141.503 69.6013 141.672 69.4389C141.841 69.2765 141.97 69.076 142.059 68.8374L143.466 69.0909C143.354 69.5052 143.152 69.8681 142.86 70.1797C142.572 70.4879 142.209 70.7282 141.771 70.9006C141.337 71.0696 140.841 71.1541 140.285 71.1541ZM148.915 71V63.3636H150.402V71H148.915ZM149.666 62.1854C149.407 62.1854 149.185 62.0992 149 61.9268C148.818 61.7512 148.726 61.5424 148.726 61.3004C148.726 61.0552 148.818 60.8464 149 60.674C149.185 60.4983 149.407 60.4105 149.666 60.4105C149.925 60.4105 150.145 60.4983 150.327 60.674C150.513 60.8464 150.606 61.0552 150.606 61.3004C150.606 61.5424 150.513 61.7512 150.327 61.9268C150.145 62.0992 149.925 62.1854 149.666 62.1854ZM153.888 66.4659V71H152.402V63.3636H153.828V64.6065H153.923C154.099 64.2022 154.374 63.8774 154.748 63.6321C155.126 63.3868 155.602 63.2642 156.175 63.2642C156.695 63.2642 157.151 63.3736 157.542 63.5923C157.933 63.8078 158.237 64.1293 158.452 64.5568C158.667 64.9844 158.775 65.513 158.775 66.1428V71H157.289V66.3217C157.289 65.7682 157.145 65.3357 156.856 65.0241C156.568 64.7093 156.172 64.5518 155.668 64.5518C155.323 64.5518 155.017 64.6264 154.748 64.7756C154.483 64.9247 154.273 65.1435 154.117 65.4318C153.964 65.7169 153.888 66.0616 153.888 66.4659ZM164.593 71V60.8182H166.08V64.6016H166.169C166.255 64.4425 166.38 64.2585 166.542 64.0497C166.704 63.8409 166.93 63.6586 167.218 63.5028C167.507 63.3438 167.888 63.2642 168.362 63.2642C168.978 63.2642 169.528 63.42 170.012 63.7315C170.496 64.0431 170.876 64.4922 171.151 65.0788C171.429 65.6655 171.568 66.3714 171.568 67.1967C171.568 68.022 171.431 68.7296 171.156 69.3196C170.881 69.9062 170.503 70.3587 170.022 70.6768C169.542 70.9917 168.993 71.1491 168.377 71.1491C167.913 71.1491 167.533 71.0713 167.238 70.9155C166.946 70.7597 166.718 70.5774 166.552 70.3686C166.386 70.1598 166.259 69.9742 166.169 69.8118H166.045V71H164.593ZM166.05 67.1818C166.05 67.7187 166.128 68.1894 166.284 68.5938C166.439 68.9981 166.665 69.3146 166.96 69.5433C167.255 69.7687 167.616 69.8814 168.044 69.8814C168.488 69.8814 168.859 69.7637 169.157 69.5284C169.455 69.2898 169.681 68.9666 169.833 68.5589C169.989 68.1513 170.067 67.6922 170.067 67.1818C170.067 66.678 169.991 66.2256 169.838 65.8246C169.689 65.4235 169.464 65.107 169.162 64.875C168.864 64.643 168.491 64.527 168.044 64.527C167.613 64.527 167.248 64.638 166.95 64.8601C166.655 65.0821 166.431 65.392 166.279 65.7898C166.126 66.1875 166.05 66.6515 166.05 67.1818ZM176.529 71.1541C175.776 71.1541 175.128 70.9934 174.585 70.6719C174.045 70.3471 173.627 69.8913 173.332 69.3047C173.04 68.7147 172.895 68.0237 172.895 67.2315C172.895 66.4493 173.04 65.7599 173.332 65.1634C173.627 64.5668 174.038 64.1011 174.565 63.7663C175.095 63.4316 175.715 63.2642 176.424 63.2642C176.855 63.2642 177.273 63.3355 177.677 63.478C178.082 63.6205 178.444 63.8442 178.766 64.1491C179.087 64.4541 179.341 64.8501 179.527 65.3374C179.712 65.8213 179.805 66.4096 179.805 67.1023V67.6293H173.735V66.5156H178.348C178.348 66.1245 178.269 65.7782 178.11 65.4766C177.951 65.1716 177.727 64.9313 177.439 64.7557C177.154 64.58 176.819 64.4922 176.434 64.4922C176.017 64.4922 175.652 64.5949 175.341 64.8004C175.032 65.0026 174.794 65.2678 174.625 65.5959C174.459 65.9207 174.376 66.2737 174.376 66.6548V67.5249C174.376 68.0353 174.466 68.4695 174.645 68.8274C174.827 69.1854 175.08 69.4588 175.405 69.6477C175.73 69.8333 176.109 69.9261 176.544 69.9261C176.825 69.9261 177.082 69.8864 177.314 69.8068C177.546 69.724 177.747 69.6013 177.916 69.4389C178.085 69.2765 178.214 69.076 178.304 68.8374L179.711 69.0909C179.598 69.5052 179.396 69.8681 179.104 70.1797C178.816 70.4879 178.453 70.7282 178.015 70.9006C177.581 71.0696 177.086 71.1541 176.529 71.1541ZM185.019 63.3636V64.5568H180.848V63.3636H185.019ZM181.966 61.5341H183.453V68.7578C183.453 69.0462 183.496 69.2633 183.582 69.4091C183.668 69.5516 183.779 69.6494 183.915 69.7024C184.055 69.7521 184.205 69.777 184.368 69.777C184.487 69.777 184.591 69.7687 184.681 69.7521C184.77 69.7356 184.84 69.7223 184.89 69.7124L185.158 70.9403C185.072 70.9735 184.949 71.0066 184.79 71.0398C184.631 71.0762 184.432 71.0961 184.194 71.0994C183.803 71.1061 183.438 71.0365 183.1 70.8906C182.762 70.7448 182.488 70.5194 182.28 70.2145C182.071 69.9096 181.966 69.5268 181.966 69.0661V61.5341ZM188.319 71L186.072 63.3636H187.608L189.104 68.9716H189.179L190.68 63.3636H192.217L193.708 68.9467H193.783L195.269 63.3636H196.805L194.563 71H193.047L191.496 65.4865H191.381L189.83 71H188.319ZM201.275 71.1541C200.522 71.1541 199.875 70.9934 199.331 70.6719C198.791 70.3471 198.373 69.8913 198.078 69.3047C197.786 68.7147 197.641 68.0237 197.641 67.2315C197.641 66.4493 197.786 65.7599 198.078 65.1634C198.373 64.5668 198.784 64.1011 199.311 63.7663C199.841 63.4316 200.461 63.2642 201.17 63.2642C201.601 63.2642 202.019 63.3355 202.423 63.478C202.828 63.6205 203.191 63.8442 203.512 64.1491C203.834 64.4541 204.087 64.8501 204.273 65.3374C204.458 65.8213 204.551 66.4096 204.551 67.1023V67.6293H198.481V66.5156H203.094C203.094 66.1245 203.015 65.7782 202.856 65.4766C202.697 65.1716 202.473 64.9313 202.185 64.7557C201.9 64.58 201.565 64.4922 201.18 64.4922C200.763 64.4922 200.398 64.5949 200.087 64.8004C199.778 65.0026 199.54 65.2678 199.371 65.5959C199.205 65.9207 199.122 66.2737 199.122 66.6548V67.5249C199.122 68.0353 199.212 68.4695 199.391 68.8274C199.573 69.1854 199.826 69.4588 200.151 69.6477C200.476 69.8333 200.856 69.9261 201.29 69.9261C201.571 69.9261 201.828 69.8864 202.06 69.8068C202.292 69.724 202.493 69.6013 202.662 69.4389C202.831 69.2765 202.96 69.076 203.05 68.8374L204.457 69.0909C204.344 69.5052 204.142 69.8681 203.85 70.1797C203.562 70.4879 203.199 70.7282 202.761 70.9006C202.327 71.0696 201.832 71.1541 201.275 71.1541ZM209.492 71.1541C208.739 71.1541 208.091 70.9934 207.548 70.6719C207.008 70.3471 206.59 69.8913 206.295 69.3047C206.003 68.7147 205.857 68.0237 205.857 67.2315C205.857 66.4493 206.003 65.7599 206.295 65.1634C206.59 64.5668 207.001 64.1011 207.528 63.7663C208.058 63.4316 208.678 63.2642 209.387 63.2642C209.818 63.2642 210.236 63.3355 210.64 63.478C211.044 63.6205 211.407 63.8442 211.729 64.1491C212.05 64.4541 212.304 64.8501 212.49 65.3374C212.675 65.8213 212.768 66.4096 212.768 67.1023V67.6293H206.698V66.5156H211.311C211.311 66.1245 211.232 65.7782 211.073 65.4766C210.914 65.1716 210.69 64.9313 210.401 64.7557C210.116 64.58 209.782 64.4922 209.397 64.4922C208.98 64.4922 208.615 64.5949 208.303 64.8004C207.995 65.0026 207.757 65.2678 207.588 65.5959C207.422 65.9207 207.339 66.2737 207.339 66.6548V67.5249C207.339 68.0353 207.428 68.4695 207.607 68.8274C207.79 69.1854 208.043 69.4588 208.368 69.6477C208.693 69.8333 209.072 69.9261 209.507 69.9261C209.788 69.9261 210.045 69.8864 210.277 69.8068C210.509 69.724 210.71 69.6013 210.879 69.4389C211.048 69.2765 211.177 69.076 211.267 68.8374L212.673 69.0909C212.561 69.5052 212.359 69.8681 212.067 70.1797C211.779 70.4879 211.416 70.7282 210.978 70.9006C210.544 71.0696 210.048 71.1541 209.492 71.1541ZM215.904 66.4659V71H214.417V63.3636H215.844V64.6065H215.939C216.114 64.2022 216.389 63.8774 216.764 63.6321C217.142 63.3868 217.617 63.2642 218.191 63.2642C218.711 63.2642 219.167 63.3736 219.558 63.5923C219.949 63.8078 220.252 64.1293 220.468 64.5568C220.683 64.9844 220.791 65.513 220.791 66.1428V71H219.304V66.3217C219.304 65.7682 219.16 65.3357 218.872 65.0241C218.583 64.7093 218.187 64.5518 217.684 64.5518C217.339 64.5518 217.032 64.6264 216.764 64.7756C216.499 64.9247 216.288 65.1435 216.132 65.4318C215.98 65.7169 215.904 66.0616 215.904 66.4659ZM226.49 71V63.3636H227.976V71H226.49ZM227.24 62.1854C226.982 62.1854 226.76 62.0992 226.574 61.9268C226.392 61.7512 226.301 61.5424 226.301 61.3004C226.301 61.0552 226.392 60.8464 226.574 60.674C226.76 60.4983 226.982 60.4105 227.24 60.4105C227.499 60.4105 227.719 60.4983 227.901 60.674C228.087 60.8464 228.18 61.0552 228.18 61.3004C228.18 61.5424 228.087 61.7512 227.901 61.9268C227.719 62.0992 227.499 62.1854 227.24 62.1854ZM229.976 71V63.3636H231.403V64.6065H231.497C231.656 64.1856 231.916 63.8575 232.278 63.6222C232.639 63.3835 233.071 63.2642 233.575 63.2642C234.086 63.2642 234.513 63.3835 234.858 63.6222C235.206 63.8608 235.463 64.1889 235.629 64.6065H235.708C235.89 64.1989 236.18 63.8741 236.578 63.6321C236.976 63.3868 237.45 63.2642 238 63.2642C238.693 63.2642 239.258 63.4813 239.695 63.9155C240.136 64.3497 240.357 65.0043 240.357 65.8793V71H238.87V66.0185C238.87 65.5014 238.729 65.1269 238.447 64.8949C238.166 64.6629 237.829 64.5469 237.438 64.5469C236.954 64.5469 236.578 64.696 236.31 64.9943C236.041 65.2893 235.907 65.6688 235.907 66.1328V71H234.425V65.924C234.425 65.5097 234.296 65.1766 234.038 64.9247C233.779 64.6728 233.443 64.5469 233.028 64.5469C232.747 64.5469 232.487 64.6214 232.248 64.7706C232.013 64.9164 231.822 65.1203 231.676 65.3821C231.534 65.6439 231.462 65.9472 231.462 66.2919V71H229.976ZM244.571 71.169C244.087 71.169 243.65 71.0795 243.259 70.9006C242.868 70.7183 242.558 70.4548 242.329 70.1101C242.104 69.7654 241.991 69.3428 241.991 68.8423C241.991 68.4115 242.074 68.0568 242.24 67.7784C242.405 67.5 242.629 67.2796 242.911 67.1172C243.192 66.9548 243.507 66.8321 243.855 66.7493C244.203 66.6664 244.558 66.6035 244.919 66.5604C245.377 66.5073 245.748 66.4643 246.033 66.4311C246.318 66.3946 246.525 66.3366 246.654 66.2571C246.784 66.1776 246.848 66.0483 246.848 65.8693V65.8345C246.848 65.4003 246.726 65.0639 246.48 64.8253C246.238 64.5866 245.877 64.4673 245.396 64.4673C244.896 64.4673 244.502 64.5784 244.213 64.8004C243.928 65.0192 243.731 65.2628 243.622 65.5312L242.225 65.2131C242.39 64.7491 242.632 64.3745 242.95 64.0895C243.272 63.8011 243.642 63.5923 244.059 63.4631C244.477 63.3305 244.916 63.2642 245.377 63.2642C245.682 63.2642 246.005 63.3007 246.346 63.3736C246.691 63.4432 247.012 63.5724 247.311 63.7614C247.612 63.9503 247.859 64.2204 248.051 64.5717C248.244 64.9197 248.34 65.3722 248.34 65.929V71H246.888V69.956H246.828C246.732 70.1482 246.588 70.3371 246.396 70.5227C246.204 70.7083 245.957 70.8625 245.655 70.9851C245.353 71.1077 244.992 71.169 244.571 71.169ZM244.894 69.9759C245.305 69.9759 245.657 69.8946 245.948 69.7322C246.243 69.5698 246.467 69.3577 246.619 69.0959C246.775 68.8307 246.853 68.5473 246.853 68.2457V67.2614C246.8 67.3144 246.697 67.3641 246.545 67.4105C246.396 67.4536 246.225 67.4917 246.033 67.5249C245.841 67.5547 245.653 67.5829 245.471 67.6094C245.289 67.6326 245.136 67.6525 245.014 67.669C244.725 67.7055 244.462 67.7668 244.223 67.853C243.988 67.9392 243.799 68.0634 243.656 68.2259C243.517 68.3849 243.448 68.5971 243.448 68.8622C243.448 69.2301 243.584 69.5085 243.855 69.6974C244.127 69.883 244.473 69.9759 244.894 69.9759ZM253.521 74.0227C252.915 74.0227 252.393 73.9432 251.955 73.7841C251.521 73.625 251.166 73.4145 250.891 73.1527C250.616 72.8909 250.411 72.6042 250.275 72.2926L251.553 71.7656C251.642 71.9115 251.761 72.0656 251.911 72.228C252.063 72.3937 252.268 72.5346 252.527 72.6506C252.789 72.7666 253.125 72.8246 253.536 72.8246C254.1 72.8246 254.565 72.687 254.933 72.4119C255.301 72.1402 255.485 71.706 255.485 71.1094V69.608H255.391C255.301 69.7704 255.172 69.951 255.003 70.1499C254.837 70.3487 254.608 70.5211 254.317 70.6669C254.025 70.8127 253.646 70.8857 253.178 70.8857C252.575 70.8857 252.031 70.7448 251.548 70.4631C251.067 70.178 250.686 69.7588 250.404 69.2053C250.126 68.6484 249.987 67.964 249.987 67.152C249.987 66.34 250.124 65.6439 250.399 65.0639C250.678 64.4839 251.059 64.0398 251.543 63.7315C252.027 63.42 252.575 63.2642 253.188 63.2642C253.662 63.2642 254.045 63.3438 254.337 63.5028C254.628 63.6586 254.855 63.8409 255.018 64.0497C255.183 64.2585 255.311 64.4425 255.401 64.6016H255.51V63.3636H256.967V71.169C256.967 71.8253 256.814 72.3639 256.509 72.7848C256.204 73.2057 255.792 73.5173 255.271 73.7195C254.754 73.9216 254.171 74.0227 253.521 74.0227ZM253.506 69.6527C253.934 69.6527 254.295 69.5533 254.59 69.3544C254.888 69.1522 255.114 68.8639 255.266 68.4893C255.422 68.1115 255.5 67.6591 255.5 67.1321C255.5 66.6184 255.424 66.166 255.271 65.7749C255.119 65.3838 254.895 65.0788 254.6 64.8601C254.305 64.638 253.941 64.527 253.506 64.527C253.059 64.527 252.686 64.643 252.388 64.875C252.089 65.1037 251.864 65.4152 251.712 65.8097C251.563 66.2041 251.488 66.6449 251.488 67.1321C251.488 67.6326 251.564 68.0717 251.717 68.4496C251.869 68.8274 252.094 69.1224 252.393 69.3345C252.694 69.5466 253.066 69.6527 253.506 69.6527ZM262.251 71.1541C261.499 71.1541 260.851 70.9934 260.308 70.6719C259.767 70.3471 259.35 69.8913 259.055 69.3047C258.763 68.7147 258.617 68.0237 258.617 67.2315C258.617 66.4493 258.763 65.7599 259.055 65.1634C259.35 64.5668 259.761 64.1011 260.288 63.7663C260.818 63.4316 261.438 63.2642 262.147 63.2642C262.578 63.2642 262.996 63.3355 263.4 63.478C263.804 63.6205 264.167 63.8442 264.489 64.1491C264.81 64.4541 265.064 64.8501 265.249 65.3374C265.435 65.8213 265.528 66.4096 265.528 67.1023V67.6293H259.457V66.5156H264.071C264.071 66.1245 263.991 65.7782 263.832 65.4766C263.673 65.1716 263.45 64.9313 263.161 64.7557C262.876 64.58 262.541 64.4922 262.157 64.4922C261.739 64.4922 261.375 64.5949 261.063 64.8004C260.755 65.0026 260.516 65.2678 260.347 65.5959C260.182 65.9207 260.099 66.2737 260.099 66.6548V67.5249C260.099 68.0353 260.188 68.4695 260.367 68.8274C260.549 69.1854 260.803 69.4588 261.128 69.6477C261.453 69.8333 261.832 69.9261 262.266 69.9261C262.548 69.9261 262.805 69.8864 263.037 69.8068C263.269 69.724 263.469 69.6013 263.638 69.4389C263.808 69.2765 263.937 69.076 264.026 68.8374L265.433 69.0909C265.321 69.5052 265.118 69.8681 264.827 70.1797C264.538 70.4879 264.175 70.7282 263.738 70.9006C263.304 71.0696 262.808 71.1541 262.251 71.1541ZM272.899 65.228L271.552 65.4666C271.496 65.2943 271.406 65.1302 271.284 64.9744C271.164 64.8187 271.002 64.6911 270.796 64.5916C270.591 64.4922 270.334 64.4425 270.026 64.4425C269.605 64.4425 269.253 64.5369 268.972 64.7259C268.69 64.9115 268.549 65.1518 268.549 65.4467C268.549 65.7019 268.644 65.9074 268.833 66.0632C269.021 66.219 269.326 66.3466 269.747 66.446L270.96 66.7244C271.663 66.8868 272.187 67.1371 272.531 67.4751C272.876 67.8132 273.048 68.2524 273.048 68.7926C273.048 69.25 272.916 69.6577 272.651 70.0156C272.389 70.3703 272.023 70.6487 271.552 70.8509C271.085 71.053 270.543 71.1541 269.926 71.1541C269.071 71.1541 268.374 70.9718 267.833 70.6072C267.293 70.2393 266.962 69.7173 266.839 69.0412L268.276 68.8224C268.365 69.197 268.549 69.4804 268.828 69.6726C269.106 69.8615 269.469 69.956 269.916 69.956C270.404 69.956 270.793 69.8549 271.085 69.6527C271.376 69.4472 271.522 69.197 271.522 68.902C271.522 68.6634 271.433 68.4628 271.254 68.3004C271.078 68.138 270.808 68.0154 270.443 67.9325L269.151 67.6491C268.438 67.4867 267.911 67.2282 267.57 66.8736C267.232 66.5189 267.063 66.0698 267.063 65.5263C267.063 65.0755 267.189 64.6811 267.441 64.343C267.692 64.005 268.04 63.7415 268.485 63.5526C268.929 63.3603 269.437 63.2642 270.011 63.2642C270.836 63.2642 271.486 63.4432 271.96 63.8011C272.434 64.1558 272.747 64.6314 272.899 65.228Z" fill="#344054"/>
<g filter="url(#filter1_d_1_10130)">
<rect fill="white" height="40" rx="8" width="327" x="56" y="82"/>
<path d="M69.2045 108V106.977L73.0455 102.773C73.4962 102.28 73.8674 101.852 74.1591 101.489C74.4508 101.121 74.6667 100.777 74.8068 100.455C74.9508 100.129 75.0227 99.7879 75.0227 99.4318C75.0227 99.0227 74.9242 98.6686 74.7273 98.3693C74.5341 98.0701 74.2689 97.839 73.9318 97.6761C73.5947 97.5133 73.2159 97.4318 72.7955 97.4318C72.3485 97.4318 71.9583 97.5246 71.625 97.7102C71.2955 97.892 71.0398 98.1477 70.858 98.4773C70.6799 98.8068 70.5909 99.1932 70.5909 99.6364H69.25C69.25 98.9545 69.4072 98.3561 69.7216 97.8409C70.036 97.3258 70.464 96.9242 71.0057 96.6364C71.5511 96.3485 72.1629 96.2045 72.8409 96.2045C73.5227 96.2045 74.1269 96.3485 74.6534 96.6364C75.1799 96.9242 75.5928 97.3125 75.892 97.8011C76.1913 98.2898 76.3409 98.8333 76.3409 99.4318C76.3409 99.8598 76.2633 100.278 76.108 100.688C75.9564 101.093 75.6913 101.545 75.3125 102.045C74.9375 102.542 74.4167 103.148 73.75 103.864L71.1364 106.659V106.75H76.5455V108H69.2045Z" fill="#667085"/>
<rect height="39" rx="7.5" stroke="#D0D5DD" width="326" x="56.5" y="82.5"/>
</g>
<path d="M58.0085 146.818L60.8423 155.111H60.9567L63.7905 146.818H65.451L61.7869 157H60.0121L56.348 146.818H58.0085ZM66.802 157V149.364H68.2885V157H66.802ZM67.5527 148.185C67.2942 148.185 67.0721 148.099 66.8865 147.927C66.7042 147.751 66.6131 147.542 66.6131 147.3C66.6131 147.055 66.7042 146.846 66.8865 146.674C67.0721 146.498 67.2942 146.411 67.5527 146.411C67.8113 146.411 68.0317 146.498 68.214 146.674C68.3996 146.846 68.4924 147.055 68.4924 147.3C68.4924 147.542 68.3996 147.751 68.214 147.927C68.0317 148.099 67.8113 148.185 67.5527 148.185ZM73.147 157.149C72.5305 157.149 71.9804 156.992 71.4964 156.677C71.0159 156.359 70.638 155.906 70.3629 155.32C70.0911 154.73 69.9553 154.022 69.9553 153.197C69.9553 152.371 70.0928 151.665 70.3679 151.079C70.6463 150.492 71.0275 150.043 71.5114 149.732C71.9953 149.42 72.5438 149.264 73.157 149.264C73.6309 149.264 74.0121 149.344 74.3004 149.503C74.5921 149.659 74.8175 149.841 74.9766 150.05C75.139 150.259 75.2649 150.442 75.3544 150.602H75.4439V146.818H76.9304V157H75.4787V155.812H75.3544C75.2649 155.974 75.1357 156.16 74.9666 156.369C74.8009 156.577 74.5722 156.76 74.2805 156.915C73.9889 157.071 73.611 157.149 73.147 157.149ZM73.4751 155.881C73.9027 155.881 74.264 155.769 74.5589 155.543C74.8572 155.315 75.0826 154.998 75.2351 154.594C75.3909 154.189 75.4688 153.719 75.4688 153.182C75.4688 152.652 75.3925 152.187 75.2401 151.79C75.0876 151.392 74.8639 151.082 74.5689 150.86C74.2739 150.638 73.9093 150.527 73.4751 150.527C73.0277 150.527 72.6548 150.643 72.3565 150.875C72.0582 151.107 71.8329 151.424 71.6804 151.825C71.5313 152.226 71.4567 152.678 71.4567 153.182C71.4567 153.692 71.5329 154.151 71.6854 154.559C71.8378 154.967 72.0632 155.29 72.3615 155.528C72.6631 155.764 73.0343 155.881 73.4751 155.881ZM82.3432 157.154C81.5908 157.154 80.9429 156.993 80.3993 156.672C79.8591 156.347 79.4415 155.891 79.1465 155.305C78.8548 154.715 78.709 154.024 78.709 153.232C78.709 152.449 78.8548 151.76 79.1465 151.163C79.4415 150.567 79.8525 150.101 80.3794 149.766C80.9097 149.432 81.5295 149.264 82.2388 149.264C82.6697 149.264 83.0873 149.335 83.4917 149.478C83.896 149.621 84.2589 149.844 84.5804 150.149C84.9019 150.454 85.1555 150.85 85.3411 151.337C85.5267 151.821 85.6195 152.41 85.6195 153.102V153.629H79.5492V152.516H84.1628C84.1628 152.125 84.0833 151.778 83.9242 151.477C83.7651 151.172 83.5414 150.931 83.253 150.756C82.968 150.58 82.6332 150.492 82.2488 150.492C81.8311 150.492 81.4666 150.595 81.155 150.8C80.8468 151.003 80.6081 151.268 80.4391 151.596C80.2734 151.921 80.1905 152.274 80.1905 152.655V153.525C80.1905 154.035 80.28 154.469 80.459 154.827C80.6413 155.185 80.8948 155.459 81.2196 155.648C81.5444 155.833 81.9239 155.926 82.3581 155.926C82.6399 155.926 82.8967 155.886 83.1287 155.807C83.3607 155.724 83.5613 155.601 83.7303 155.439C83.8993 155.277 84.0286 155.076 84.1181 154.837L85.525 155.091C85.4123 155.505 85.2102 155.868 84.9185 156.18C84.6301 156.488 84.2672 156.728 83.8297 156.901C83.3955 157.07 82.9 157.154 82.3432 157.154ZM90.4854 157.154C89.7695 157.154 89.1448 156.99 88.6112 156.662C88.0775 156.334 87.6632 155.875 87.3683 155.285C87.0733 154.695 86.9258 154.005 86.9258 153.217C86.9258 152.424 87.0733 151.732 87.3683 151.138C87.6632 150.545 88.0775 150.085 88.6112 149.756C89.1448 149.428 89.7695 149.264 90.4854 149.264C91.2013 149.264 91.8261 149.428 92.3597 149.756C92.8933 150.085 93.3076 150.545 93.6026 151.138C93.8976 151.732 94.0451 152.424 94.0451 153.217C94.0451 154.005 93.8976 154.695 93.6026 155.285C93.3076 155.875 92.8933 156.334 92.3597 156.662C91.8261 156.99 91.2013 157.154 90.4854 157.154ZM90.4904 155.906C90.9544 155.906 91.3389 155.784 91.6438 155.538C91.9487 155.293 92.1741 154.967 92.32 154.559C92.4691 154.151 92.5437 153.702 92.5437 153.212C92.5437 152.724 92.4691 152.277 92.32 151.869C92.1741 151.458 91.9487 151.129 91.6438 150.88C91.3389 150.631 90.9544 150.507 90.4904 150.507C90.0231 150.507 89.6353 150.631 89.3271 150.88C89.0221 151.129 88.7951 151.458 88.646 151.869C88.5001 152.277 88.4272 152.724 88.4272 153.212C88.4272 153.702 88.5001 154.151 88.646 154.559C88.7951 154.967 89.0221 155.293 89.3271 155.538C89.6353 155.784 90.0231 155.906 90.4904 155.906ZM99.5288 157V146.818H103.158C103.947 146.818 104.601 146.954 105.122 147.226C105.645 147.498 106.037 147.874 106.295 148.354C106.554 148.832 106.683 149.384 106.683 150.01C106.683 150.633 106.552 151.182 106.29 151.656C106.032 152.126 105.641 152.492 105.117 152.754C104.596 153.016 103.942 153.147 103.153 153.147H100.404V151.825H103.014C103.511 151.825 103.915 151.753 104.227 151.611C104.542 151.468 104.772 151.261 104.918 150.989C105.064 150.718 105.137 150.391 105.137 150.01C105.137 149.625 105.062 149.292 104.913 149.011C104.767 148.729 104.537 148.513 104.222 148.364C103.91 148.212 103.501 148.136 102.994 148.136H101.065V157H99.5288ZM104.555 152.406L107.071 157H105.321L102.855 152.406H104.555ZM111.628 157.154C110.876 157.154 110.228 156.993 109.684 156.672C109.144 156.347 108.727 155.891 108.432 155.305C108.14 154.715 107.994 154.024 107.994 153.232C107.994 152.449 108.14 151.76 108.432 151.163C108.727 150.567 109.138 150.101 109.665 149.766C110.195 149.432 110.815 149.264 111.524 149.264C111.955 149.264 112.372 149.335 112.777 149.478C113.181 149.621 113.544 149.844 113.866 150.149C114.187 150.454 114.441 150.85 114.626 151.337C114.812 151.821 114.905 152.41 114.905 153.102V153.629H108.834V152.516H113.448C113.448 152.125 113.368 151.778 113.209 151.477C113.05 151.172 112.827 150.931 112.538 150.756C112.253 150.58 111.918 150.492 111.534 150.492C111.116 150.492 110.752 150.595 110.44 150.8C110.132 151.003 109.893 151.268 109.724 151.596C109.559 151.921 109.476 152.274 109.476 152.655V153.525C109.476 154.035 109.565 154.469 109.744 154.827C109.926 155.185 110.18 155.459 110.505 155.648C110.83 155.833 111.209 155.926 111.643 155.926C111.925 155.926 112.182 155.886 112.414 155.807C112.646 155.724 112.846 155.601 113.015 155.439C113.184 155.277 113.314 155.076 113.403 154.837L114.81 155.091C114.698 155.505 114.495 155.868 114.204 156.18C113.915 156.488 113.552 156.728 113.115 156.901C112.681 157.07 112.185 157.154 111.628 157.154ZM122.276 151.228L120.929 151.467C120.873 151.294 120.783 151.13 120.661 150.974C120.541 150.819 120.379 150.691 120.173 150.592C119.968 150.492 119.711 150.442 119.403 150.442C118.982 150.442 118.63 150.537 118.349 150.726C118.067 150.911 117.926 151.152 117.926 151.447C117.926 151.702 118.021 151.907 118.21 152.063C118.398 152.219 118.703 152.347 119.124 152.446L120.337 152.724C121.04 152.887 121.564 153.137 121.908 153.475C122.253 153.813 122.425 154.252 122.425 154.793C122.425 155.25 122.293 155.658 122.028 156.016C121.766 156.37 121.4 156.649 120.929 156.851C120.462 157.053 119.92 157.154 119.303 157.154C118.448 157.154 117.75 156.972 117.21 156.607C116.67 156.239 116.339 155.717 116.216 155.041L117.653 154.822C117.742 155.197 117.926 155.48 118.205 155.673C118.483 155.862 118.846 155.956 119.293 155.956C119.781 155.956 120.17 155.855 120.462 155.653C120.753 155.447 120.899 155.197 120.899 154.902C120.899 154.663 120.81 154.463 120.631 154.3C120.455 154.138 120.185 154.015 119.82 153.933L118.528 153.649C117.815 153.487 117.288 153.228 116.947 152.874C116.609 152.519 116.44 152.07 116.44 151.526C116.44 151.076 116.566 150.681 116.817 150.343C117.069 150.005 117.417 149.741 117.862 149.553C118.306 149.36 118.814 149.264 119.388 149.264C120.213 149.264 120.863 149.443 121.337 149.801C121.811 150.156 122.124 150.631 122.276 151.228ZM127.276 157.154C126.561 157.154 125.936 156.99 125.402 156.662C124.869 156.334 124.454 155.875 124.159 155.285C123.864 154.695 123.717 154.005 123.717 153.217C123.717 152.424 123.864 151.732 124.159 151.138C124.454 150.545 124.869 150.085 125.402 149.756C125.936 149.428 126.561 149.264 127.276 149.264C127.992 149.264 128.617 149.428 129.151 149.756C129.684 150.085 130.099 150.545 130.394 151.138C130.689 151.732 130.836 152.424 130.836 153.217C130.836 154.005 130.689 154.695 130.394 155.285C130.099 155.875 129.684 156.334 129.151 156.662C128.617 156.99 127.992 157.154 127.276 157.154ZM127.281 155.906C127.745 155.906 128.13 155.784 128.435 155.538C128.74 155.293 128.965 154.967 129.111 154.559C129.26 154.151 129.335 153.702 129.335 153.212C129.335 152.724 129.26 152.277 129.111 151.869C128.965 151.458 128.74 151.129 128.435 150.88C128.13 150.631 127.745 150.507 127.281 150.507C126.814 150.507 126.426 150.631 126.118 150.88C125.813 151.129 125.586 151.458 125.437 151.869C125.291 152.277 125.218 152.724 125.218 153.212C125.218 153.702 125.291 154.151 125.437 154.559C125.586 154.967 125.813 155.293 126.118 155.538C126.426 155.784 126.814 155.906 127.281 155.906ZM133.982 146.818V157H132.495V146.818H133.982ZM140.819 153.833V149.364H142.311V157H140.849V155.678H140.769C140.594 156.085 140.312 156.425 139.924 156.697C139.54 156.965 139.061 157.099 138.487 157.099C137.997 157.099 137.563 156.992 137.185 156.776C136.81 156.558 136.515 156.234 136.3 155.807C136.088 155.379 135.982 154.851 135.982 154.221V149.364H137.468V154.042C137.468 154.562 137.612 154.977 137.901 155.285C138.189 155.593 138.564 155.747 139.024 155.747C139.303 155.747 139.579 155.678 139.855 155.538C140.133 155.399 140.363 155.189 140.546 154.907C140.731 154.625 140.822 154.267 140.819 153.833ZM147.873 149.364V150.557H143.701V149.364H147.873ZM144.82 147.534H146.306V154.758C146.306 155.046 146.35 155.263 146.436 155.409C146.522 155.552 146.633 155.649 146.769 155.702C146.908 155.752 147.059 155.777 147.221 155.777C147.341 155.777 147.445 155.769 147.534 155.752C147.624 155.736 147.694 155.722 147.743 155.712L148.012 156.94C147.926 156.973 147.803 157.007 147.644 157.04C147.485 157.076 147.286 157.096 147.047 157.099C146.656 157.106 146.292 157.036 145.953 156.891C145.615 156.745 145.342 156.519 145.133 156.214C144.924 155.91 144.82 155.527 144.82 155.066V147.534ZM149.517 157V149.364H151.003V157H149.517ZM150.268 148.185C150.009 148.185 149.787 148.099 149.601 147.927C149.419 147.751 149.328 147.542 149.328 147.3C149.328 147.055 149.419 146.846 149.601 146.674C149.787 146.498 150.009 146.411 150.268 146.411C150.526 146.411 150.747 146.498 150.929 146.674C151.114 146.846 151.207 147.055 151.207 147.3C151.207 147.542 151.114 147.751 150.929 147.927C150.747 148.099 150.526 148.185 150.268 148.185ZM156.22 157.154C155.504 157.154 154.879 156.99 154.346 156.662C153.812 156.334 153.398 155.875 153.103 155.285C152.808 154.695 152.66 154.005 152.66 153.217C152.66 152.424 152.808 151.732 153.103 151.138C153.398 150.545 153.812 150.085 154.346 149.756C154.879 149.428 155.504 149.264 156.22 149.264C156.936 149.264 157.56 149.428 158.094 149.756C158.628 150.085 159.042 150.545 159.337 151.138C159.632 151.732 159.779 152.424 159.779 153.217C159.779 154.005 159.632 154.695 159.337 155.285C159.042 155.875 158.628 156.334 158.094 156.662C157.56 156.99 156.936 157.154 156.22 157.154ZM156.225 155.906C156.689 155.906 157.073 155.784 157.378 155.538C157.683 155.293 157.908 154.967 158.054 154.559C158.203 154.151 158.278 153.702 158.278 153.212C158.278 152.724 158.203 152.277 158.054 151.869C157.908 151.458 157.683 151.129 157.378 150.88C157.073 150.631 156.689 150.507 156.225 150.507C155.757 150.507 155.37 150.631 155.061 150.88C154.757 151.129 154.529 151.458 154.38 151.869C154.234 152.277 154.162 152.724 154.162 153.212C154.162 153.702 154.234 154.151 154.38 154.559C154.529 154.967 154.757 155.293 155.061 155.538C155.37 155.784 155.757 155.906 156.225 155.906ZM162.925 152.466V157H161.439V149.364H162.866V150.607H162.96C163.136 150.202 163.411 149.877 163.785 149.632C164.163 149.387 164.639 149.264 165.212 149.264C165.733 149.264 166.188 149.374 166.579 149.592C166.97 149.808 167.274 150.129 167.489 150.557C167.705 150.984 167.812 151.513 167.812 152.143V157H166.326V152.322C166.326 151.768 166.182 151.336 165.893 151.024C165.605 150.709 165.209 150.552 164.705 150.552C164.36 150.552 164.054 150.626 163.785 150.776C163.52 150.925 163.31 151.143 163.154 151.432C163.001 151.717 162.925 152.062 162.925 152.466Z" fill="#344054"/>
<g filter="url(#filter2_d_1_10130)">
<rect fill="white" height="44" rx="8" width="327" x="56" y="168"/>
<path d="M71.5682 196L76.7727 185.705V185.614H70.7727V184.364H78.2273V185.682L73.0455 196H71.5682ZM80.3452 196V194.977L84.1861 190.773C84.6368 190.28 85.008 189.852 85.2997 189.489C85.5914 189.121 85.8073 188.777 85.9474 188.455C86.0914 188.129 86.1634 187.788 86.1634 187.432C86.1634 187.023 86.0649 186.669 85.8679 186.369C85.6747 186.07 85.4096 185.839 85.0724 185.676C84.7353 185.513 84.3565 185.432 83.9361 185.432C83.4891 185.432 83.099 185.525 82.7656 185.71C82.4361 185.892 82.1804 186.148 81.9986 186.477C81.8205 186.807 81.7315 187.193 81.7315 187.636H80.3906C80.3906 186.955 80.5478 186.356 80.8622 185.841C81.1766 185.326 81.6046 184.924 82.1463 184.636C82.6918 184.348 83.3035 184.205 83.9815 184.205C84.6634 184.205 85.2675 184.348 85.794 184.636C86.3205 184.924 86.7334 185.312 87.0327 185.801C87.3319 186.29 87.4815 186.833 87.4815 187.432C87.4815 187.86 87.4039 188.278 87.2486 188.688C87.0971 189.093 86.8319 189.545 86.4531 190.045C86.0781 190.542 85.5573 191.148 84.8906 191.864L82.277 194.659V194.75H87.6861V196H80.3452ZM93.8281 196.159C92.9721 196.159 92.2429 195.926 91.6406 195.46C91.0384 194.991 90.5781 194.311 90.2599 193.42C89.9418 192.527 89.7827 191.447 89.7827 190.182C89.7827 188.924 89.9418 187.85 90.2599 186.96C90.5819 186.066 91.044 185.384 91.6463 184.915C92.2524 184.441 92.9796 184.205 93.8281 184.205C94.6766 184.205 95.402 184.441 96.0043 184.915C96.6103 185.384 97.0724 186.066 97.3906 186.96C97.7126 187.85 97.8736 188.924 97.8736 190.182C97.8736 191.447 97.7145 192.527 97.3963 193.42C97.0781 194.311 96.6179 194.991 96.0156 195.46C95.4134 195.926 94.6842 196.159 93.8281 196.159ZM93.8281 194.909C94.6766 194.909 95.3357 194.5 95.8054 193.682C96.2751 192.864 96.5099 191.697 96.5099 190.182C96.5099 189.174 96.402 188.316 96.1861 187.608C95.974 186.9 95.6671 186.36 95.2656 185.989C94.8679 185.617 94.3887 185.432 93.8281 185.432C92.9872 185.432 92.33 185.847 91.8565 186.676C91.383 187.502 91.1463 188.67 91.1463 190.182C91.1463 191.189 91.2524 192.045 91.4645 192.75C91.6766 193.455 91.9815 193.991 92.3793 194.358C92.7808 194.725 93.2637 194.909 93.8281 194.909ZM100.055 199.273V187.273H101.351V188.659H101.51C101.608 188.508 101.745 188.314 101.919 188.08C102.097 187.841 102.351 187.629 102.68 187.443C103.014 187.254 103.464 187.159 104.033 187.159C104.768 187.159 105.415 187.343 105.976 187.71C106.536 188.078 106.974 188.598 107.288 189.273C107.603 189.947 107.76 190.742 107.76 191.659C107.76 192.583 107.603 193.384 107.288 194.062C106.974 194.737 106.538 195.259 105.982 195.631C105.425 195.998 104.783 196.182 104.055 196.182C103.495 196.182 103.046 196.089 102.709 195.903C102.372 195.714 102.112 195.5 101.93 195.261C101.749 195.019 101.608 194.818 101.51 194.659H101.396V199.273H100.055ZM101.374 191.636C101.374 192.295 101.47 192.877 101.663 193.381C101.857 193.881 102.139 194.273 102.51 194.557C102.881 194.837 103.336 194.977 103.874 194.977C104.434 194.977 104.902 194.83 105.277 194.534C105.656 194.235 105.94 193.833 106.129 193.33C106.322 192.822 106.419 192.258 106.419 191.636C106.419 191.023 106.324 190.47 106.135 189.977C105.949 189.481 105.667 189.089 105.288 188.801C104.913 188.509 104.442 188.364 103.874 188.364C103.328 188.364 102.87 188.502 102.499 188.778C102.127 189.051 101.847 189.434 101.658 189.926C101.468 190.415 101.374 190.985 101.374 191.636Z" fill="#667085"/>
<rect height="43" rx="7.5" stroke="#D0D5DD" width="326" x="56.5" y="168.5"/>
</g>
<path d="M58.0085 236.818L60.8423 245.111H60.9567L63.7905 236.818H65.451L61.7869 247H60.0121L56.348 236.818H58.0085ZM66.802 247V239.364H68.2885V247H66.802ZM67.5527 238.185C67.2942 238.185 67.0721 238.099 66.8865 237.927C66.7042 237.751 66.6131 237.542 66.6131 237.3C66.6131 237.055 66.7042 236.846 66.8865 236.674C67.0721 236.498 67.2942 236.411 67.5527 236.411C67.8113 236.411 68.0317 236.498 68.214 236.674C68.3996 236.846 68.4924 237.055 68.4924 237.3C68.4924 237.542 68.3996 237.751 68.214 237.927C68.0317 238.099 67.8113 238.185 67.5527 238.185ZM73.147 247.149C72.5305 247.149 71.9804 246.992 71.4964 246.677C71.0159 246.359 70.638 245.906 70.3629 245.32C70.0911 244.73 69.9553 244.022 69.9553 243.197C69.9553 242.371 70.0928 241.665 70.3679 241.079C70.6463 240.492 71.0275 240.043 71.5114 239.732C71.9953 239.42 72.5438 239.264 73.157 239.264C73.6309 239.264 74.0121 239.344 74.3004 239.503C74.5921 239.659 74.8175 239.841 74.9766 240.05C75.139 240.259 75.2649 240.442 75.3544 240.602H75.4439V236.818H76.9304V247H75.4787V245.812H75.3544C75.2649 245.974 75.1357 246.16 74.9666 246.369C74.8009 246.577 74.5722 246.76 74.2805 246.915C73.9889 247.071 73.611 247.149 73.147 247.149ZM73.4751 245.881C73.9027 245.881 74.264 245.769 74.5589 245.543C74.8572 245.315 75.0826 244.998 75.2351 244.594C75.3909 244.189 75.4688 243.719 75.4688 243.182C75.4688 242.652 75.3925 242.187 75.2401 241.79C75.0876 241.392 74.8639 241.082 74.5689 240.86C74.2739 240.638 73.9093 240.527 73.4751 240.527C73.0277 240.527 72.6548 240.643 72.3565 240.875C72.0582 241.107 71.8329 241.424 71.6804 241.825C71.5313 242.226 71.4567 242.678 71.4567 243.182C71.4567 243.692 71.5329 244.151 71.6854 244.559C71.8378 244.967 72.0632 245.29 72.3615 245.528C72.6631 245.764 73.0343 245.881 73.4751 245.881ZM82.3432 247.154C81.5908 247.154 80.9429 246.993 80.3993 246.672C79.8591 246.347 79.4415 245.891 79.1465 245.305C78.8548 244.715 78.709 244.024 78.709 243.232C78.709 242.449 78.8548 241.76 79.1465 241.163C79.4415 240.567 79.8525 240.101 80.3794 239.766C80.9097 239.432 81.5295 239.264 82.2388 239.264C82.6697 239.264 83.0873 239.335 83.4917 239.478C83.896 239.621 84.2589 239.844 84.5804 240.149C84.9019 240.454 85.1555 240.85 85.3411 241.337C85.5267 241.821 85.6195 242.41 85.6195 243.102V243.629H79.5492V242.516H84.1628C84.1628 242.125 84.0833 241.778 83.9242 241.477C83.7651 241.172 83.5414 240.931 83.253 240.756C82.968 240.58 82.6332 240.492 82.2488 240.492C81.8311 240.492 81.4666 240.595 81.155 240.8C80.8468 241.003 80.6081 241.268 80.4391 241.596C80.2734 241.921 80.1905 242.274 80.1905 242.655V243.525C80.1905 244.035 80.28 244.469 80.459 244.827C80.6413 245.185 80.8948 245.459 81.2196 245.648C81.5444 245.833 81.9239 245.926 82.3581 245.926C82.6399 245.926 82.8967 245.886 83.1287 245.807C83.3607 245.724 83.5613 245.601 83.7303 245.439C83.8993 245.277 84.0286 245.076 84.1181 244.837L85.525 245.091C85.4123 245.505 85.2102 245.868 84.9185 246.18C84.6301 246.488 84.2672 246.728 83.8297 246.901C83.3955 247.07 82.9 247.154 82.3432 247.154ZM90.4854 247.154C89.7695 247.154 89.1448 246.99 88.6112 246.662C88.0775 246.334 87.6632 245.875 87.3683 245.285C87.0733 244.695 86.9258 244.005 86.9258 243.217C86.9258 242.424 87.0733 241.732 87.3683 241.138C87.6632 240.545 88.0775 240.085 88.6112 239.756C89.1448 239.428 89.7695 239.264 90.4854 239.264C91.2013 239.264 91.8261 239.428 92.3597 239.756C92.8933 240.085 93.3076 240.545 93.6026 241.138C93.8976 241.732 94.0451 242.424 94.0451 243.217C94.0451 244.005 93.8976 244.695 93.6026 245.285C93.3076 245.875 92.8933 246.334 92.3597 246.662C91.8261 246.99 91.2013 247.154 90.4854 247.154ZM90.4904 245.906C90.9544 245.906 91.3389 245.784 91.6438 245.538C91.9487 245.293 92.1741 244.967 92.32 244.559C92.4691 244.151 92.5437 243.702 92.5437 243.212C92.5437 242.724 92.4691 242.277 92.32 241.869C92.1741 241.458 91.9487 241.129 91.6438 240.88C91.3389 240.631 90.9544 240.507 90.4904 240.507C90.0231 240.507 89.6353 240.631 89.3271 240.88C89.0221 241.129 88.7951 241.458 88.646 241.869C88.5001 242.277 88.4272 242.724 88.4272 243.212C88.4272 243.702 88.5001 244.151 88.646 244.559C88.7951 244.967 89.0221 245.293 89.3271 245.538C89.6353 245.784 90.0231 245.906 90.4904 245.906ZM99.5288 247V236.818H105.843V238.141H101.065V241.243H105.39V242.56H101.065V247H99.5288ZM110.269 247.154C109.553 247.154 108.928 246.99 108.394 246.662C107.861 246.334 107.446 245.875 107.151 245.285C106.856 244.695 106.709 244.005 106.709 243.217C106.709 242.424 106.856 241.732 107.151 241.138C107.446 240.545 107.861 240.085 108.394 239.756C108.928 239.428 109.553 239.264 110.269 239.264C110.985 239.264 111.609 239.428 112.143 239.756C112.677 240.085 113.091 240.545 113.386 241.138C113.681 241.732 113.828 242.424 113.828 243.217C113.828 244.005 113.681 244.695 113.386 245.285C113.091 245.875 112.677 246.334 112.143 246.662C111.609 246.99 110.985 247.154 110.269 247.154ZM110.274 245.906C110.738 245.906 111.122 245.784 111.427 245.538C111.732 245.293 111.957 244.967 112.103 244.559C112.252 244.151 112.327 243.702 112.327 243.212C112.327 242.724 112.252 242.277 112.103 241.869C111.957 241.458 111.732 241.129 111.427 240.88C111.122 240.631 110.738 240.507 110.274 240.507C109.806 240.507 109.419 240.631 109.11 240.88C108.805 241.129 108.578 241.458 108.429 241.869C108.283 242.277 108.21 242.724 108.21 243.212C108.21 243.702 108.283 244.151 108.429 244.559C108.578 244.967 108.805 245.293 109.11 245.538C109.419 245.784 109.806 245.906 110.274 245.906ZM115.488 247V239.364H116.924V240.577H117.004C117.143 240.166 117.388 239.843 117.74 239.607C118.094 239.369 118.495 239.249 118.943 239.249C119.036 239.249 119.145 239.253 119.271 239.259C119.4 239.266 119.501 239.274 119.574 239.284V240.706C119.515 240.689 119.408 240.671 119.256 240.651C119.104 240.628 118.951 240.616 118.799 240.616C118.447 240.616 118.134 240.691 117.859 240.84C117.587 240.986 117.372 241.19 117.213 241.452C117.054 241.71 116.974 242.005 116.974 242.337V247H115.488ZM120.861 247V239.364H122.287V240.607H122.382C122.541 240.186 122.801 239.857 123.162 239.622C123.524 239.384 123.956 239.264 124.46 239.264C124.97 239.264 125.398 239.384 125.743 239.622C126.091 239.861 126.348 240.189 126.513 240.607H126.593C126.775 240.199 127.065 239.874 127.463 239.632C127.861 239.387 128.335 239.264 128.885 239.264C129.577 239.264 130.143 239.481 130.58 239.915C131.021 240.35 131.241 241.004 131.241 241.879V247H129.755V242.018C129.755 241.501 129.614 241.127 129.332 240.895C129.05 240.663 128.714 240.547 128.323 240.547C127.839 240.547 127.463 240.696 127.194 240.994C126.926 241.289 126.792 241.669 126.792 242.133V247H125.31V241.924C125.31 241.51 125.181 241.177 124.922 240.925C124.664 240.673 124.327 240.547 123.913 240.547C123.631 240.547 123.371 240.621 123.133 240.771C122.897 240.916 122.707 241.12 122.561 241.382C122.418 241.644 122.347 241.947 122.347 242.292V247H120.861ZM135.456 247.169C134.972 247.169 134.535 247.08 134.143 246.901C133.752 246.718 133.442 246.455 133.214 246.11C132.988 245.765 132.876 245.343 132.876 244.842C132.876 244.411 132.959 244.057 133.124 243.778C133.29 243.5 133.514 243.28 133.795 243.117C134.077 242.955 134.392 242.832 134.74 242.749C135.088 242.666 135.443 242.603 135.804 242.56C136.261 242.507 136.633 242.464 136.918 242.431C137.203 242.395 137.41 242.337 137.539 242.257C137.668 242.178 137.733 242.048 137.733 241.869V241.835C137.733 241.4 137.61 241.064 137.365 240.825C137.123 240.587 136.762 240.467 136.281 240.467C135.781 240.467 135.386 240.578 135.098 240.8C134.813 241.019 134.616 241.263 134.506 241.531L133.109 241.213C133.275 240.749 133.517 240.375 133.835 240.089C134.157 239.801 134.526 239.592 134.944 239.463C135.362 239.33 135.801 239.264 136.261 239.264C136.566 239.264 136.889 239.301 137.231 239.374C137.576 239.443 137.897 239.572 138.195 239.761C138.497 239.95 138.744 240.22 138.936 240.572C139.128 240.92 139.224 241.372 139.224 241.929V247H137.773V245.956H137.713C137.617 246.148 137.473 246.337 137.281 246.523C137.088 246.708 136.841 246.862 136.54 246.985C136.238 247.108 135.877 247.169 135.456 247.169ZM135.779 245.976C136.19 245.976 136.541 245.895 136.833 245.732C137.128 245.57 137.352 245.358 137.504 245.096C137.66 244.831 137.738 244.547 137.738 244.246V243.261C137.685 243.314 137.582 243.364 137.43 243.411C137.281 243.454 137.11 243.492 136.918 243.525C136.725 243.555 136.538 243.583 136.356 243.609C136.174 243.633 136.021 243.652 135.898 243.669C135.61 243.705 135.347 243.767 135.108 243.853C134.873 243.939 134.684 244.063 134.541 244.226C134.402 244.385 134.332 244.597 134.332 244.862C134.332 245.23 134.468 245.509 134.74 245.697C135.012 245.883 135.358 245.976 135.779 245.976ZM144.769 239.364V240.557H140.598V239.364H144.769ZM141.716 237.534H143.203V244.758C143.203 245.046 143.246 245.263 143.332 245.409C143.418 245.552 143.529 245.649 143.665 245.702C143.805 245.752 143.955 245.777 144.118 245.777C144.237 245.777 144.341 245.769 144.431 245.752C144.52 245.736 144.59 245.722 144.64 245.712L144.908 246.94C144.822 246.973 144.699 247.007 144.54 247.04C144.381 247.076 144.182 247.096 143.944 247.099C143.553 247.106 143.188 247.036 142.85 246.891C142.512 246.745 142.238 246.519 142.03 246.214C141.821 245.91 141.716 245.527 141.716 245.066V237.534Z" fill="#344054"/>
<rect fill="#EFF4FF" height="15" rx="7.5" width="15" x="56.5" y="262.5"/>
<circle cx="64" cy="270" fill="#155EEF" r="3"/>
<rect height="15" rx="7.5" stroke="#155EEF" width="15" x="56.5" y="262.5"/>
<path d="M81.1186 264.818H82.983L86.2244 272.733H86.3438L89.5852 264.818H91.4496V275H89.9879V267.632H89.8935L86.8906 274.985H85.6776L82.6747 267.627H82.5803V275H81.1186V264.818ZM93.6831 275V264.818H97.3123C98.1045 264.818 98.7607 264.962 99.2811 265.251C99.8014 265.539 100.191 265.933 100.449 266.434C100.708 266.931 100.837 267.491 100.837 268.114C100.837 268.741 100.706 269.304 100.444 269.805C100.186 270.302 99.7948 270.696 99.2711 270.988C98.7508 271.276 98.0962 271.42 97.3074 271.42H94.8116V270.118H97.1681C97.6686 270.118 98.0746 270.032 98.3862 269.859C98.6977 269.684 98.9264 269.445 99.0723 269.143C99.2181 268.842 99.291 268.499 99.291 268.114C99.291 267.73 99.2181 267.388 99.0723 267.09C98.9264 266.792 98.6961 266.558 98.3812 266.389C98.0697 266.22 97.6587 266.136 97.1483 266.136H95.2193V275H93.6831ZM102.285 273.011V271.768L106.685 264.818H107.664V266.648H107.043L103.896 271.629V271.709H109.926V273.011H102.285ZM107.113 275V272.634L107.123 272.067V264.818H108.579V275H107.113Z" fill="#344054"/>
<rect fill="white" height="15" rx="7.5" width="15" x="143.5" y="262.5"/>
<rect height="15" rx="7.5" stroke="#D0D5DD" width="15" x="143.5" y="262.5"/>
<path d="M175.009 268.035C174.913 267.733 174.784 267.463 174.621 267.224C174.462 266.982 174.272 266.777 174.05 266.608C173.828 266.436 173.574 266.305 173.289 266.215C173.007 266.126 172.697 266.081 172.359 266.081C171.786 266.081 171.269 266.228 170.808 266.523C170.348 266.818 169.983 267.251 169.714 267.821C169.449 268.388 169.317 269.082 169.317 269.904C169.317 270.729 169.451 271.427 169.719 271.997C169.988 272.567 170.356 273 170.823 273.295C171.29 273.59 171.822 273.737 172.419 273.737C172.973 273.737 173.455 273.625 173.866 273.399C174.28 273.174 174.6 272.856 174.825 272.445C175.054 272.03 175.168 271.543 175.168 270.983L175.566 271.058H172.653V269.79H176.655V270.948C176.655 271.803 176.473 272.546 176.108 273.175C175.747 273.802 175.246 274.286 174.607 274.627C173.97 274.969 173.241 275.139 172.419 275.139C171.498 275.139 170.689 274.927 169.993 274.503C169.3 274.079 168.76 273.477 168.372 272.698C167.984 271.916 167.79 270.988 167.79 269.914C167.79 269.102 167.903 268.373 168.129 267.727C168.354 267.08 168.67 266.532 169.078 266.081C169.489 265.627 169.971 265.281 170.525 265.042C171.082 264.8 171.69 264.679 172.349 264.679C172.9 264.679 173.412 264.76 173.886 264.923C174.363 265.085 174.787 265.315 175.158 265.614C175.533 265.912 175.843 266.267 176.088 266.678C176.333 267.085 176.499 267.538 176.585 268.035H175.009ZM180.141 264.818V275H178.605V264.818H180.141ZM182.378 275V264.818H188.692V266.141H183.915V269.243H188.24V270.56H183.915V275H182.378Z" fill="#344054"/>
</g>
<rect fill="url(#paint0_linear_1_10130)" height="95" transform="matrix(1 0 0 -1 0 292)" width="256"/>
</g>
<defs>
<filter color-interpolation-filters="sRGB" filterUnits="userSpaceOnUse" height="444" id="filter0_d_1_10130" width="447" x="-4" y="20">
<feFlood flood-opacity="0" result="BackgroundImageFix"/>
<feColorMatrix in="SourceAlpha" result="hardAlpha" type="matrix" values="0 0 0 0 0 0 0 0 0 0 0 0 0 0 0 0 0 0 127 0"/>
<feMorphology in="SourceAlpha" operator="erode" radius="12" result="effect1_dropShadow_1_10130"/>
<feOffset dy="24"/>
<feGaussianBlur stdDeviation="24"/>
<feColorMatrix type="matrix" values="0 0 0 0 0.0625882 0 0 0 0 0.0926346 0 0 0 0 0.15702 0 0 0 0.18 0"/>
<feBlend in2="BackgroundImageFix" mode="normal" result="effect1_dropShadow_1_10130"/>
<feBlend in="SourceGraphic" in2="effect1_dropShadow_1_10130" mode="normal" result="shape"/>
</filter>
<filter color-interpolation-filters="sRGB" filterUnits="userSpaceOnUse" height="44" id="filter1_d_1_10130" width="331" x="54" y="81">
<feFlood flood-opacity="0" result="BackgroundImageFix"/>
<feColorMatrix in="SourceAlpha" result="hardAlpha" type="matrix" values="0 0 0 0 0 0 0 0 0 0 0 0 0 0 0 0 0 0 127 0"/>
<feOffset dy="1"/>
<feGaussianBlur stdDeviation="1"/>
<feColorMatrix type="matrix" values="0 0 0 0 0.0627451 0 0 0 0 0.0941176 0 0 0 0 0.156863 0 0 0 0.05 0"/>
<feBlend in2="BackgroundImageFix" mode="normal" result="effect1_dropShadow_1_10130"/>
<feBlend in="SourceGraphic" in2="effect1_dropShadow_1_10130" mode="normal" result="shape"/>
</filter>
<filter color-interpolation-filters="sRGB" filterUnits="userSpaceOnUse" height="48" id="filter2_d_1_10130" width="331" x="54" y="167">
<feFlood flood-opacity="0" result="BackgroundImageFix"/>
<feColorMatrix in="SourceAlpha" result="hardAlpha" type="matrix" values="0 0 0 0 0 0 0 0 0 0 0 0 0 0 0 0 0 0 127 0"/>
<feOffset dy="1"/>
<feGaussianBlur stdDeviation="1"/>
<feColorMatrix type="matrix" values="0 0 0 0 0.0627451 0 0 0 0 0.0941176 0 0 0 0 0.156863 0 0 0 0.05 0"/>
<feBlend in2="BackgroundImageFix" mode="normal" result="effect1_dropShadow_1_10130"/>
<feBlend in="SourceGraphic" in2="effect1_dropShadow_1_10130" mode="normal" result="shape"/>
</filter>
<linearGradient gradientUnits="userSpaceOnUse" id="paint0_linear_1_10130" x1="128" x2="128" y1="0" y2="95">
<stop stop-color="#DFECFF" stop-opacity="0.65"/>
<stop offset="1" stop-color="white" stop-opacity="0"/>
</linearGradient>
<clipPath id="clip0_1_10130">
<rect fill="white" height="338" rx="16" width="512"/>
</clipPath>
</defs>
</svg>