<?xml version="1.0" encoding="utf-8"?>
<svg xmlns="http://www.w3.org/2000/svg" fill="none" height="126" viewBox="0 0 248 126" width="248">
<g clip-path="url(#clip0_1_10018)">
<rect fill="#B9E6FE" height="144" rx="16" width="270"/>
<g filter="url(#filter0_d_1_10018)">
<path d="M20 28C20 23.5817 23.5817 20 28 20H286C290.418 20 294 23.5817 294 28V136C294 140.418 290.418 144 286 144H28C23.5817 144 20 140.418 20 136V28Z" fill="#F9FAFB"/>
<path d="M41.076 40.8182H42.6072V48.0369C42.6072 48.6899 42.478 49.2483 42.2195 49.7124C41.9643 50.1764 41.6046 50.531 41.1406 50.7763C40.6766 51.0182 40.133 51.1392 39.5099 51.1392C38.9366 51.1392 38.4212 51.0348 37.9638 50.826C37.5097 50.6172 37.1501 50.3139 36.8849 49.9162C36.6231 49.5152 36.4922 49.0279 36.4922 48.4545H38.0185C38.0185 48.7363 38.0831 48.9799 38.2124 49.1854C38.3449 49.3909 38.5256 49.5516 38.7543 49.6676C38.9863 49.7803 39.2514 49.8366 39.5497 49.8366C39.8745 49.8366 40.1496 49.7687 40.375 49.6328C40.6037 49.4936 40.7777 49.2898 40.897 49.0213C41.0163 48.7528 41.076 48.4247 41.076 48.0369V40.8182ZM49.5613 47.8331V43.3636H51.0527V51H49.5911V49.6776H49.5115C49.3359 50.0852 49.0542 50.425 48.6664 50.6967C48.2819 50.9652 47.803 51.0994 47.2296 51.0994C46.7391 51.0994 46.3049 50.9917 45.927 50.7763C45.5525 50.5575 45.2575 50.2344 45.0421 49.8068C44.83 49.3793 44.7239 48.8506 44.7239 48.2209V43.3636H46.2104V48.0419C46.2104 48.5623 46.3546 48.9766 46.6429 49.2848C46.9313 49.593 47.3058 49.7472 47.7665 49.7472C48.0449 49.7472 48.3217 49.6776 48.5968 49.5384C48.8752 49.3991 49.1055 49.1887 49.2878 48.907C49.4734 48.6252 49.5646 48.2673 49.5613 47.8331ZM53.0501 53.8636V43.3636H54.5018V44.6016H54.6261C54.7122 44.4425 54.8365 44.2585 54.9989 44.0497C55.1613 43.8409 55.3867 43.6586 55.6751 43.5028C55.9634 43.3438 56.3446 43.2642 56.8185 43.2642C57.435 43.2642 57.9852 43.42 58.4691 43.7315C58.953 44.0431 59.3325 44.4922 59.6076 45.0788C59.886 45.6655 60.0252 46.3714 60.0252 47.1967C60.0252 48.022 59.8877 48.7296 59.6126 49.3196C59.3375 49.9062 58.9596 50.3587 58.479 50.6768C57.9985 50.9917 57.4499 51.1491 56.8335 51.1491C56.3694 51.1491 55.9899 51.0713 55.695 50.9155C55.4033 50.7597 55.1746 50.5774 55.0089 50.3686C54.8432 50.1598 54.7156 49.9742 54.6261 49.8118H54.5366V53.8636H53.0501ZM54.5067 47.1818C54.5067 47.7187 54.5846 48.1894 54.7404 48.5938C54.8962 48.9981 55.1216 49.3146 55.4165 49.5433C55.7115 49.7687 56.0728 49.8814 56.5004 49.8814C56.9445 49.8814 57.3157 49.7637 57.614 49.5284C57.9123 49.2898 58.1377 48.9666 58.2901 48.5589C58.4459 48.1513 58.5238 47.6922 58.5238 47.1818C58.5238 46.678 58.4476 46.2256 58.2951 45.8246C58.146 45.4235 57.9206 45.107 57.619 44.875C57.3207 44.643 56.9478 44.527 56.5004 44.527C56.0695 44.527 55.7049 44.638 55.4066 44.8601C55.1116 45.0821 54.8879 45.392 54.7354 45.7898C54.583 46.1875 54.5067 46.6515 54.5067 47.1818ZM61.6907 51V43.3636H63.1772V51H61.6907ZM62.4414 42.1854C62.1829 42.1854 61.9608 42.0992 61.7752 41.9268C61.5929 41.7512 61.5018 41.5424 61.5018 41.3004C61.5018 41.0552 61.5929 40.8464 61.7752 40.674C61.9608 40.4983 62.1829 40.4105 62.4414 40.4105C62.6999 40.4105 62.9203 40.4983 63.1026 40.674C63.2882 40.8464 63.381 41.0552 63.381 41.3004C63.381 41.5424 63.2882 41.7512 63.1026 41.9268C62.9203 42.0992 62.6999 42.1854 62.4414 42.1854ZM68.7417 43.3636V44.5568H64.5705V43.3636H68.7417ZM65.6891 41.5341H67.1756V48.7578C67.1756 49.0462 67.2187 49.2633 67.3049 49.4091C67.391 49.5516 67.5021 49.6494 67.638 49.7024C67.7772 49.7521 67.928 49.777 68.0904 49.777C68.2097 49.777 68.3141 49.7687 68.4036 49.7521C68.4931 49.7356 68.5627 49.7223 68.6124 49.7124L68.8809 50.9403C68.7947 50.9735 68.6721 51.0066 68.513 51.0398C68.3539 51.0762 68.155 51.0961 67.9164 51.0994C67.5253 51.1061 67.1607 51.0365 66.8226 50.8906C66.4846 50.7448 66.2111 50.5194 66.0023 50.2145C65.7935 49.9096 65.6891 49.5268 65.6891 49.0661V41.5341ZM73.5952 51.1541C72.8428 51.1541 72.1948 50.9934 71.6513 50.6719C71.111 50.3471 70.6934 49.8913 70.3984 49.3047C70.1068 48.7147 69.9609 48.0237 69.9609 47.2315C69.9609 46.4493 70.1068 45.7599 70.3984 45.1634C70.6934 44.5668 71.1044 44.1011 71.6314 43.7663C72.1617 43.4316 72.7815 43.2642 73.4908 43.2642C73.9216 43.2642 74.3393 43.3355 74.7436 43.478C75.148 43.6205 75.5109 43.8442 75.8324 44.1491C76.1539 44.4541 76.4074 44.8501 76.593 45.3374C76.7786 45.8213 76.8714 46.4096 76.8714 47.1023V47.6293H70.8011V46.5156H75.4148C75.4148 46.1245 75.3352 45.7782 75.1761 45.4766C75.017 45.1716 74.7933 44.9313 74.505 44.7557C74.2199 44.58 73.8852 44.4922 73.5007 44.4922C73.0831 44.4922 72.7185 44.5949 72.407 44.8004C72.0987 45.0026 71.8601 45.2678 71.6911 45.5959C71.5253 45.9207 71.4425 46.2737 71.4425 46.6548V47.5249C71.4425 48.0353 71.532 48.4695 71.7109 48.8274C71.8932 49.1854 72.1468 49.4588 72.4716 49.6477C72.7964 49.8333 73.1759 49.9261 73.6101 49.9261C73.8918 49.9261 74.1487 49.8864 74.3807 49.8068C74.6127 49.724 74.8132 49.6013 74.9822 49.4389C75.1513 49.2765 75.2805 49.076 75.37 48.8374L76.777 49.0909C76.6643 49.5052 76.4621 49.8681 76.1705 50.1797C75.8821 50.4879 75.5192 50.7282 75.0817 50.9006C74.6475 51.0696 74.152 51.1541 73.5952 51.1541ZM78.5208 51V43.3636H79.9576V44.5767H80.0371C80.1763 44.1657 80.4216 43.8426 80.7729 43.6072C81.1275 43.3686 81.5286 43.2493 81.976 43.2493C82.0688 43.2493 82.1782 43.2526 82.3042 43.2592C82.4334 43.2659 82.5345 43.2741 82.6074 43.2841V44.706C82.5478 44.6894 82.4417 44.6712 82.2892 44.6513C82.1368 44.6281 81.9843 44.6165 81.8319 44.6165C81.4805 44.6165 81.1673 44.6911 80.8922 44.8402C80.6204 44.986 80.405 45.1899 80.2459 45.4517C80.0868 45.7102 80.0073 46.0052 80.0073 46.3366V51H78.5208ZM92.0982 45.2628V46.5554H87.584V45.2628H92.0982ZM99.8974 51L97.0735 40.8182H98.6893L100.673 48.7031H100.767L102.831 40.8182H104.431L106.495 48.7081H106.589L108.568 40.8182H110.189L107.36 51H105.814L103.671 43.3736H103.591L101.449 51H99.8974ZM111.47 51V43.3636H112.956V51H111.47ZM112.221 42.1854C111.962 42.1854 111.74 42.0992 111.555 41.9268C111.372 41.7512 111.281 41.5424 111.281 41.3004C111.281 41.0552 111.372 40.8464 111.555 40.674C111.74 40.4983 111.962 40.4105 112.221 40.4105C112.479 40.4105 112.7 40.4983 112.882 40.674C113.068 40.8464 113.16 41.0552 113.16 41.3004C113.16 41.5424 113.068 41.7512 112.882 41.9268C112.7 42.0992 112.479 42.1854 112.221 42.1854ZM116.324 48.4098L116.314 46.5952H116.572L119.615 43.3636H121.395L117.924 47.0426H117.691L116.324 48.4098ZM114.956 51V40.8182H116.443V51H114.956ZM119.779 51L117.044 47.3707L118.069 46.3317L121.603 51H119.779ZM122.749 51V43.3636H124.236V51H122.749ZM123.5 42.1854C123.241 42.1854 123.019 42.0992 122.834 41.9268C122.652 41.7512 122.56 41.5424 122.56 41.3004C122.56 41.0552 122.652 40.8464 122.834 40.674C123.019 40.4983 123.241 40.4105 123.5 40.4105C123.759 40.4105 123.979 40.4983 124.161 40.674C124.347 40.8464 124.44 41.0552 124.44 41.3004C124.44 41.5424 124.347 41.7512 124.161 41.9268C123.979 42.0992 123.759 42.1854 123.5 42.1854ZM126.236 53.8636V43.3636H127.687V44.6016H127.812C127.898 44.4425 128.022 44.2585 128.184 44.0497C128.347 43.8409 128.572 43.6586 128.861 43.5028C129.149 43.3438 129.53 43.2642 130.004 43.2642C130.621 43.2642 131.171 43.42 131.655 43.7315C132.139 44.0431 132.518 44.4922 132.793 45.0788C133.072 45.6655 133.211 46.3714 133.211 47.1967C133.211 48.022 133.073 48.7296 132.798 49.3196C132.523 49.9062 132.145 50.3587 131.665 50.6768C131.184 50.9917 130.635 51.1491 130.019 51.1491C129.555 51.1491 129.175 51.0713 128.881 50.9155C128.589 50.7597 128.36 50.5774 128.194 50.3686C128.029 50.1598 127.901 49.9742 127.812 49.8118H127.722V53.8636H126.236ZM127.692 47.1818C127.692 47.7187 127.77 48.1894 127.926 48.5938C128.082 48.9981 128.307 49.3146 128.602 49.5433C128.897 49.7687 129.258 49.8814 129.686 49.8814C130.13 49.8814 130.501 49.7637 130.8 49.5284C131.098 49.2898 131.323 48.9666 131.476 48.5589C131.631 48.1513 131.709 47.6922 131.709 47.1818C131.709 46.678 131.633 46.2256 131.481 45.8246C131.331 45.4235 131.106 45.107 130.805 44.875C130.506 44.643 130.133 44.527 129.686 44.527C129.255 44.527 128.89 44.638 128.592 44.8601C128.297 45.0821 128.073 45.392 127.921 45.7898C127.769 46.1875 127.692 46.6515 127.692 47.1818ZM138.167 51.1541C137.415 51.1541 136.767 50.9934 136.224 50.6719C135.683 50.3471 135.266 49.8913 134.971 49.3047C134.679 48.7147 134.533 48.0237 134.533 47.2315C134.533 46.4493 134.679 45.7599 134.971 45.1634C135.266 44.5668 135.677 44.1011 136.204 43.7663C136.734 43.4316 137.354 43.2642 138.063 43.2642C138.494 43.2642 138.912 43.3355 139.316 43.478C139.72 43.6205 140.083 43.8442 140.405 44.1491C140.726 44.4541 140.98 44.8501 141.165 45.3374C141.351 45.8213 141.444 46.4096 141.444 47.1023V47.6293H135.373V46.5156H139.987C139.987 46.1245 139.907 45.7782 139.748 45.4766C139.589 45.1716 139.366 44.9313 139.077 44.7557C138.792 44.58 138.457 44.4922 138.073 44.4922C137.655 44.4922 137.291 44.5949 136.979 44.8004C136.671 45.0026 136.432 45.2678 136.263 45.5959C136.098 45.9207 136.015 46.2737 136.015 46.6548V47.5249C136.015 48.0353 136.104 48.4695 136.283 48.8274C136.465 49.1854 136.719 49.4588 137.044 49.6477C137.369 49.8333 137.748 49.9261 138.182 49.9261C138.464 49.9261 138.721 49.8864 138.953 49.8068C139.185 49.724 139.385 49.6013 139.555 49.4389C139.724 49.2765 139.853 49.076 139.942 48.8374L141.349 49.0909C141.237 49.5052 141.034 49.8681 140.743 50.1797C140.454 50.4879 140.091 50.7282 139.654 50.9006C139.22 51.0696 138.724 51.1541 138.167 51.1541ZM145.952 51.1491C145.335 51.1491 144.785 50.9917 144.301 50.6768C143.821 50.3587 143.443 49.9062 143.168 49.3196C142.896 48.7296 142.76 48.022 142.76 47.1967C142.76 46.3714 142.897 45.6655 143.173 45.0788C143.451 44.4922 143.832 44.0431 144.316 43.7315C144.8 43.42 145.348 43.2642 145.962 43.2642C146.436 43.2642 146.817 43.3438 147.105 43.5028C147.397 43.6586 147.622 43.8409 147.781 44.0497C147.944 44.2585 148.07 44.4425 148.159 44.6016H148.249V40.8182H149.735V51H148.283V49.8118H148.159C148.07 49.9742 147.94 50.1598 147.771 50.3686C147.606 50.5774 147.377 50.7597 147.085 50.9155C146.794 51.0713 146.416 51.1491 145.952 51.1491ZM146.28 49.8814C146.707 49.8814 147.069 49.7687 147.364 49.5433C147.662 49.3146 147.887 48.9981 148.04 48.5938C148.196 48.1894 148.273 47.7187 148.273 47.1818C148.273 46.6515 148.197 46.1875 148.045 45.7898C147.892 45.392 147.669 45.0821 147.374 44.8601C147.079 44.638 146.714 44.527 146.28 44.527C145.832 44.527 145.46 44.643 145.161 44.875C144.863 45.107 144.638 45.4235 144.485 45.8246C144.336 46.2256 144.261 46.678 144.261 47.1818C144.261 47.6922 144.338 48.1513 144.49 48.5589C144.643 48.9666 144.868 49.2898 145.166 49.5284C145.468 49.7637 145.839 49.8814 146.28 49.8814ZM151.857 51V43.3636H153.343V51H151.857ZM152.607 42.1854C152.349 42.1854 152.127 42.0992 151.941 41.9268C151.759 41.7512 151.668 41.5424 151.668 41.3004C151.668 41.0552 151.759 40.8464 151.941 40.674C152.127 40.4983 152.349 40.4105 152.607 40.4105C152.866 40.4105 153.086 40.4983 153.269 40.674C153.454 40.8464 153.547 41.0552 153.547 41.3004C153.547 41.5424 153.454 41.7512 153.269 41.9268C153.086 42.0992 152.866 42.1854 152.607 42.1854ZM157.565 51.169C157.081 51.169 156.644 51.0795 156.253 50.9006C155.862 50.7183 155.552 50.4548 155.323 50.1101C155.098 49.7654 154.985 49.3428 154.985 48.8423C154.985 48.4115 155.068 48.0568 155.234 47.7784C155.399 47.5 155.623 47.2796 155.905 47.1172C156.187 46.9548 156.501 46.8321 156.849 46.7493C157.197 46.6664 157.552 46.6035 157.913 46.5604C158.371 46.5073 158.742 46.4643 159.027 46.4311C159.312 46.3946 159.519 46.3366 159.648 46.2571C159.778 46.1776 159.842 46.0483 159.842 45.8693V45.8345C159.842 45.4003 159.72 45.0639 159.474 44.8253C159.232 44.5866 158.871 44.4673 158.391 44.4673C157.89 44.4673 157.496 44.5784 157.207 44.8004C156.922 45.0192 156.725 45.2628 156.616 45.5312L155.219 45.2131C155.384 44.7491 155.626 44.3745 155.945 44.0895C156.266 43.8011 156.636 43.5923 157.053 43.4631C157.471 43.3305 157.91 43.2642 158.371 43.2642C158.676 43.2642 158.999 43.3007 159.34 43.3736C159.685 43.4432 160.006 43.5724 160.305 43.7614C160.606 43.9503 160.853 44.2204 161.045 44.5717C161.238 44.9197 161.334 45.3722 161.334 45.929V51H159.882V49.956H159.822C159.726 50.1482 159.582 50.3371 159.39 50.5227C159.198 50.7083 158.951 50.8625 158.649 50.9851C158.348 51.1077 157.986 51.169 157.565 51.169ZM157.888 49.9759C158.299 49.9759 158.651 49.8946 158.942 49.7322C159.237 49.5698 159.461 49.3577 159.614 49.0959C159.769 48.8307 159.847 48.5473 159.847 48.2457V47.2614C159.794 47.3144 159.692 47.3641 159.539 47.4105C159.39 47.4536 159.219 47.4917 159.027 47.5249C158.835 47.5547 158.647 47.5829 158.465 47.6094C158.283 47.6326 158.13 47.6525 158.008 47.669C157.719 47.7055 157.456 47.7668 157.217 47.853C156.982 47.9392 156.793 48.0634 156.651 48.2259C156.511 48.3849 156.442 48.5971 156.442 48.8622C156.442 49.2301 156.578 49.5085 156.849 49.6974C157.121 49.883 157.468 49.9759 157.888 49.9759Z" fill="#344054"/>
<path d="M38.1307 75.1136V79H36.8565V70.2727H38.1136V73.5199H38.1946C38.348 73.1676 38.5824 72.8878 38.8977 72.6804C39.2131 72.473 39.625 72.3693 40.1335 72.3693C40.5824 72.3693 40.9744 72.4616 41.3097 72.6463C41.6477 72.831 41.9091 73.1065 42.0938 73.473C42.2812 73.8366 42.375 74.2912 42.375 74.8366V79H41.1009V74.9901C41.1009 74.5099 40.9773 74.1378 40.7301 73.8736C40.483 73.6065 40.1392 73.473 39.6989 73.473C39.3977 73.473 39.1278 73.5369 38.8892 73.6648C38.6534 73.7926 38.4673 73.9801 38.331 74.2273C38.1974 74.4716 38.1307 74.767 38.1307 75.1136ZM47.1307 72.4545V73.4773H43.5554V72.4545H47.1307ZM44.5142 70.8864H45.7884V77.0781C45.7884 77.3253 45.8253 77.5114 45.8991 77.6364C45.973 77.7585 46.0682 77.8423 46.1847 77.8878C46.304 77.9304 46.4332 77.9517 46.5724 77.9517C46.6747 77.9517 46.7642 77.9446 46.8409 77.9304C46.9176 77.9162 46.9773 77.9048 47.0199 77.8963L47.25 78.9489C47.1761 78.9773 47.071 79.0057 46.9347 79.0341C46.7983 79.0653 46.6278 79.0824 46.4233 79.0852C46.0881 79.0909 45.7756 79.0312 45.4858 78.9062C45.196 78.7812 44.9616 78.5881 44.7827 78.3267C44.6037 78.0653 44.5142 77.7372 44.5142 77.3423V70.8864ZM51.5955 72.4545V73.4773H48.0202V72.4545H51.5955ZM48.979 70.8864H50.2532V77.0781C50.2532 77.3253 50.2901 77.5114 50.364 77.6364C50.4379 77.7585 50.533 77.8423 50.6495 77.8878C50.7688 77.9304 50.8981 77.9517 51.0373 77.9517C51.1396 77.9517 51.229 77.9446 51.3058 77.9304C51.3825 77.9162 51.4421 77.9048 51.4847 77.8963L51.7148 78.9489C51.641 78.9773 51.5359 79.0057 51.3995 79.0341C51.2631 79.0653 51.0927 79.0824 50.8881 79.0852C50.5529 79.0909 50.2404 79.0312 49.9506 78.9062C49.6609 78.7812 49.4265 78.5881 49.2475 78.3267C49.0685 78.0653 48.979 77.7372 48.979 77.3423V70.8864ZM53.005 81.4545V72.4545H54.2493V73.5156H54.3558C54.4297 73.3793 54.5362 73.2216 54.6754 73.0426C54.8146 72.8636 55.0078 72.7074 55.255 72.5739C55.5021 72.4375 55.8288 72.3693 56.2351 72.3693C56.7635 72.3693 57.2351 72.5028 57.6499 72.7699C58.0646 73.0369 58.3899 73.4219 58.6257 73.9247C58.8643 74.4276 58.9837 75.0327 58.9837 75.7401C58.9837 76.4474 58.8658 77.054 58.63 77.5597C58.3942 78.0625 58.0703 78.4503 57.6584 78.723C57.2464 78.9929 56.7763 79.1278 56.2479 79.1278C55.8501 79.1278 55.5249 79.0611 55.272 78.9276C55.022 78.794 54.826 78.6378 54.6839 78.4588C54.5419 78.2798 54.4325 78.1207 54.3558 77.9815H54.2791V81.4545H53.005ZM54.2536 75.7273C54.2536 76.1875 54.3203 76.5909 54.4538 76.9375C54.5874 77.2841 54.7805 77.5554 55.0334 77.7514C55.2862 77.9446 55.5959 78.0412 55.9624 78.0412C56.343 78.0412 56.6612 77.9403 56.9169 77.7386C57.1726 77.5341 57.3658 77.2571 57.4964 76.9077C57.63 76.5582 57.6967 76.1648 57.6967 75.7273C57.6967 75.2955 57.6314 74.9077 57.5007 74.5639C57.3729 74.2202 57.1797 73.9489 56.9212 73.75C56.6655 73.5511 56.3459 73.4517 55.9624 73.4517C55.593 73.4517 55.2805 73.5469 55.0249 73.7372C54.772 73.9276 54.5803 74.1932 54.4496 74.5341C54.3189 74.875 54.2536 75.2727 54.2536 75.7273ZM65.3161 74.0526L64.1612 74.2571C64.1129 74.1094 64.0362 73.9687 63.9311 73.8352C63.8288 73.7017 63.6896 73.5923 63.5135 73.5071C63.3374 73.4219 63.1172 73.3793 62.853 73.3793C62.4922 73.3793 62.1911 73.4602 61.9496 73.6222C61.7081 73.7812 61.5874 73.9872 61.5874 74.2401C61.5874 74.4588 61.6683 74.6349 61.8303 74.7685C61.9922 74.902 62.2536 75.0114 62.6143 75.0966L63.6541 75.3352C64.2564 75.4744 64.7053 75.6889 65.0007 75.9787C65.2962 76.2685 65.4439 76.6449 65.4439 77.108C65.4439 77.5 65.3303 77.8494 65.103 78.1562C64.8786 78.4602 64.5646 78.6989 64.1612 78.8722C63.7607 79.0455 63.2962 79.1321 62.7678 79.1321C62.0348 79.1321 61.4368 78.9759 60.9737 78.6634C60.5107 78.348 60.2266 77.9006 60.1214 77.321L61.353 77.1335C61.4297 77.4545 61.5874 77.6974 61.826 77.8622C62.0646 78.0241 62.3757 78.1051 62.7592 78.1051C63.1768 78.1051 63.5107 78.0185 63.7607 77.8452C64.0107 77.669 64.1357 77.4545 64.1357 77.2017C64.1357 76.9972 64.0589 76.8253 63.9055 76.6861C63.755 76.5469 63.5234 76.4418 63.2109 76.3707L62.103 76.1278C61.4922 75.9886 61.0405 75.767 60.7479 75.4631C60.4581 75.1591 60.3132 74.7741 60.3132 74.3082C60.3132 73.9219 60.4212 73.5838 60.6371 73.294C60.853 73.0043 61.1513 72.7784 61.532 72.6165C61.9126 72.4517 62.3487 72.3693 62.8402 72.3693C63.5476 72.3693 64.1044 72.5227 64.5107 72.8295C64.9169 73.1335 65.1854 73.5412 65.3161 74.0526ZM67.6843 79.081C67.4513 79.081 67.2511 78.9986 67.0835 78.8338C66.9158 78.6662 66.832 78.4645 66.832 78.2287C66.832 77.9957 66.9158 77.7969 67.0835 77.6321C67.2511 77.4645 67.4513 77.3807 67.6843 77.3807C67.9173 77.3807 68.1175 77.4645 68.2852 77.6321C68.4528 77.7969 68.5366 77.9957 68.5366 78.2287C68.5366 78.3849 68.4968 78.5284 68.4173 78.6591C68.3406 78.7869 68.2383 78.8892 68.1104 78.9659C67.9826 79.0426 67.8406 79.081 67.6843 79.081ZM67.6843 74.3168C67.4513 74.3168 67.2511 74.233 67.0835 74.0653C66.9158 73.8977 66.832 73.6974 66.832 73.4645C66.832 73.2315 66.9158 73.0327 67.0835 72.8679C67.2511 72.7003 67.4513 72.6165 67.6843 72.6165C67.9173 72.6165 68.1175 72.7003 68.2852 72.8679C68.4528 73.0327 68.5366 73.2315 68.5366 73.4645C68.5366 73.6207 68.4968 73.7642 68.4173 73.8949C68.3406 74.0227 68.2383 74.125 68.1104 74.2017C67.9826 74.2784 67.8406 74.3168 67.6843 74.3168ZM73.5671 69.8636L70.7546 80.3125H69.6168L72.4293 69.8636H73.5671ZM77.9734 69.8636L75.1609 80.3125H74.0231L76.8356 69.8636H77.9734ZM81.8768 79.1321C81.2319 79.1321 80.6765 78.9943 80.2106 78.7188C79.7475 78.4403 79.3896 78.0497 79.1367 77.5469C78.8867 77.0412 78.7617 76.4489 78.7617 75.7699C78.7617 75.0994 78.8867 74.5085 79.1367 73.9972C79.3896 73.4858 79.7418 73.0866 80.1935 72.7997C80.6481 72.5128 81.1793 72.3693 81.7873 72.3693C82.1566 72.3693 82.5146 72.4304 82.8612 72.5526C83.2077 72.6747 83.5188 72.8665 83.7944 73.1278C84.07 73.3892 84.2873 73.7287 84.4464 74.1463C84.6055 74.5611 84.685 75.0653 84.685 75.6591V76.1108H79.4819V75.1562H83.4364C83.4364 74.821 83.3683 74.5241 83.2319 74.2656C83.0955 74.0043 82.9038 73.7983 82.6566 73.6477C82.4123 73.4972 82.1254 73.4219 81.7958 73.4219C81.4379 73.4219 81.1254 73.5099 80.8583 73.6861C80.5941 73.8594 80.3896 74.0866 80.2447 74.3679C80.1026 74.6463 80.0316 74.9489 80.0316 75.2756V76.0213C80.0316 76.4588 80.1083 76.831 80.2617 77.1378C80.418 77.4446 80.6353 77.679 80.9137 77.8409C81.1921 78 81.5174 78.0795 81.8896 78.0795C82.131 78.0795 82.3512 78.0455 82.5501 77.9773C82.7489 77.9062 82.9208 77.8011 83.0657 77.6619C83.2106 77.5227 83.3214 77.3509 83.3981 77.1463L84.604 77.3636C84.5075 77.7187 84.3342 78.0298 84.0842 78.2969C83.837 78.5611 83.5259 78.767 83.1509 78.9148C82.7788 79.0597 82.354 79.1321 81.8768 79.1321ZM87.3729 75.1136V79H86.0987V72.4545H87.3217V73.5199H87.4027C87.5533 73.1733 87.7891 72.8949 88.1101 72.6847C88.4339 72.4744 88.8416 72.3693 89.3331 72.3693C89.7791 72.3693 90.1697 72.4631 90.505 72.6506C90.8402 72.8352 91.1001 73.1108 91.2848 73.4773C91.4695 73.8437 91.5618 74.2969 91.5618 74.8366V79H90.2876V74.9901C90.2876 74.5156 90.1641 74.1449 89.9169 73.8778C89.6697 73.608 89.3303 73.473 88.8984 73.473C88.603 73.473 88.3402 73.5369 88.1101 73.6648C87.8828 73.7926 87.7024 73.9801 87.5689 74.2273C87.4382 74.4716 87.3729 74.767 87.3729 75.1136ZM94.1101 79.081C93.8771 79.081 93.6768 78.9986 93.5092 78.8338C93.3416 78.6662 93.2578 78.4645 93.2578 78.2287C93.2578 77.9957 93.3416 77.7969 93.5092 77.6321C93.6768 77.4645 93.8771 77.3807 94.1101 77.3807C94.343 77.3807 94.5433 77.4645 94.7109 77.6321C94.8786 77.7969 94.9624 77.9957 94.9624 78.2287C94.9624 78.3849 94.9226 78.5284 94.843 78.6591C94.7663 78.7869 94.6641 78.8892 94.5362 78.9659C94.4084 79.0426 94.2663 79.081 94.1101 79.081ZM98.0881 79L96.1619 72.4545H97.4787L98.7614 77.2614H98.8253L100.112 72.4545H101.429L102.707 77.2401H102.771L104.045 72.4545H105.362L103.44 79H102.141L100.811 74.2741H100.713L99.3835 79H98.0881ZM106.571 79V72.4545H107.846V79H106.571ZM107.215 71.4446C106.993 71.4446 106.803 71.3707 106.644 71.223C106.488 71.0724 106.409 70.8935 106.409 70.6861C106.409 70.4759 106.488 70.2969 106.644 70.1491C106.803 69.9986 106.993 69.9233 107.215 69.9233C107.436 69.9233 107.625 69.9986 107.782 70.1491C107.941 70.2969 108.02 70.4759 108.02 70.6861C108.02 70.8935 107.941 71.0724 107.782 71.223C107.625 71.3707 107.436 71.4446 107.215 71.4446ZM110.732 76.7798L110.723 75.2244H110.945L113.553 72.4545H115.078L112.104 75.608H111.903L110.732 76.7798ZM109.56 79V70.2727H110.834V79H109.56ZM113.693 79L111.349 75.8892L112.227 74.9986L115.257 79H113.693ZM116.239 79V72.4545H117.513V79H116.239ZM116.883 71.4446C116.661 71.4446 116.471 71.3707 116.312 71.223C116.156 71.0724 116.077 70.8935 116.077 70.6861C116.077 70.4759 116.156 70.2969 116.312 70.1491C116.471 69.9986 116.661 69.9233 116.883 69.9233C117.104 69.9233 117.293 69.9986 117.45 70.1491C117.609 70.2969 117.688 70.4759 117.688 70.6861C117.688 70.8935 117.609 71.0724 117.45 71.223C117.293 71.3707 117.104 71.4446 116.883 71.4446ZM119.228 81.4545V72.4545H120.472V73.5156H120.578C120.652 73.3793 120.759 73.2216 120.898 73.0426C121.037 72.8636 121.23 72.7074 121.478 72.5739C121.725 72.4375 122.051 72.3693 122.458 72.3693C122.986 72.3693 123.458 72.5028 123.873 72.7699C124.287 73.0369 124.613 73.4219 124.848 73.9247C125.087 74.4276 125.206 75.0327 125.206 75.7401C125.206 76.4474 125.088 77.054 124.853 77.5597C124.617 78.0625 124.293 78.4503 123.881 78.723C123.469 78.9929 122.999 79.1278 122.471 79.1278C122.073 79.1278 121.748 79.0611 121.495 78.9276C121.245 78.794 121.049 78.6378 120.907 78.4588C120.765 78.2798 120.655 78.1207 120.578 77.9815H120.502V81.4545H119.228ZM120.476 75.7273C120.476 76.1875 120.543 76.5909 120.676 76.9375C120.81 77.2841 121.003 77.5554 121.256 77.7514C121.509 77.9446 121.819 78.0412 122.185 78.0412C122.566 78.0412 122.884 77.9403 123.14 77.7386C123.395 77.5341 123.588 77.2571 123.719 76.9077C123.853 76.5582 123.919 76.1648 123.919 75.7273C123.919 75.2955 123.854 74.9077 123.723 74.5639C123.596 74.2202 123.402 73.9489 123.144 73.75C122.888 73.5511 122.569 73.4517 122.185 73.4517C121.816 73.4517 121.503 73.5469 121.248 73.7372C120.995 73.9276 120.803 74.1932 120.672 74.5341C120.542 74.875 120.476 75.2727 120.476 75.7273ZM129.455 79.1321C128.81 79.1321 128.255 78.9943 127.789 78.7188C127.326 78.4403 126.968 78.0497 126.715 77.5469C126.465 77.0412 126.34 76.4489 126.34 75.7699C126.34 75.0994 126.465 74.5085 126.715 73.9972C126.968 73.4858 127.32 73.0866 127.772 72.7997C128.226 72.5128 128.757 72.3693 129.365 72.3693C129.735 72.3693 130.093 72.4304 130.439 72.5526C130.786 72.6747 131.097 72.8665 131.373 73.1278C131.648 73.3892 131.865 73.7287 132.025 74.1463C132.184 74.5611 132.263 75.0653 132.263 75.6591V76.1108H127.06V75.1562H131.015C131.015 74.821 130.946 74.5241 130.81 74.2656C130.674 74.0043 130.482 73.7983 130.235 73.6477C129.99 73.4972 129.703 73.4219 129.374 73.4219C129.016 73.4219 128.703 73.5099 128.436 73.6861C128.172 73.8594 127.968 74.0866 127.823 74.3679C127.681 74.6463 127.61 74.9489 127.61 75.2756V76.0213C127.61 76.4588 127.686 76.831 127.84 77.1378C127.996 77.4446 128.213 77.679 128.492 77.8409C128.77 78 129.096 78.0795 129.468 78.0795C129.709 78.0795 129.929 78.0455 130.128 77.9773C130.327 77.9062 130.499 77.8011 130.644 77.6619C130.789 77.5227 130.9 77.3509 130.976 77.1463L132.182 77.3636C132.086 77.7187 131.912 78.0298 131.662 78.2969C131.415 78.5611 131.104 78.767 130.729 78.9148C130.357 79.0597 129.932 79.1321 129.455 79.1321ZM136.127 79.1278C135.599 79.1278 135.127 78.9929 134.712 78.723C134.3 78.4503 133.977 78.0625 133.741 77.5597C133.508 77.054 133.391 76.4474 133.391 75.7401C133.391 75.0327 133.509 74.4276 133.745 73.9247C133.984 73.4219 134.31 73.0369 134.725 72.7699C135.14 72.5028 135.61 72.3693 136.136 72.3693C136.542 72.3693 136.869 72.4375 137.116 72.5739C137.366 72.7074 137.559 72.8636 137.695 73.0426C137.835 73.2216 137.942 73.3793 138.019 73.5156H138.096V70.2727H139.37V79H138.126V77.9815H138.019C137.942 78.1207 137.832 78.2798 137.687 78.4588C137.545 78.6378 137.349 78.794 137.099 78.9276C136.849 79.0611 136.525 79.1278 136.127 79.1278ZM136.408 78.0412C136.775 78.0412 137.085 77.9446 137.337 77.7514C137.593 77.5554 137.786 77.2841 137.917 76.9375C138.05 76.5909 138.117 76.1875 138.117 75.7273C138.117 75.2727 138.052 74.875 137.921 74.5341C137.79 74.1932 137.599 73.9276 137.346 73.7372C137.093 73.5469 136.781 73.4517 136.408 73.4517C136.025 73.4517 135.705 73.5511 135.45 73.75C135.194 73.9489 135.001 74.2202 134.87 74.5639C134.742 74.9077 134.678 75.2955 134.678 75.7273C134.678 76.1648 134.744 76.5582 134.874 76.9077C135.005 77.2571 135.198 77.5341 135.454 77.7386C135.712 77.9403 136.031 78.0412 136.408 78.0412ZM141.189 79V72.4545H142.463V79H141.189ZM141.832 71.4446C141.61 71.4446 141.42 71.3707 141.261 71.223C141.105 71.0724 141.027 70.8935 141.027 70.6861C141.027 70.4759 141.105 70.2969 141.261 70.1491C141.42 69.9986 141.61 69.9233 141.832 69.9233C142.054 69.9233 142.243 69.9986 142.399 70.1491C142.558 70.2969 142.637 70.4759 142.637 70.6861C142.637 70.8935 142.558 71.0724 142.399 71.223C142.243 71.3707 142.054 71.4446 141.832 71.4446ZM146.082 79.1449C145.667 79.1449 145.292 79.0682 144.957 78.9148C144.621 78.7585 144.356 78.5327 144.16 78.2372C143.967 77.9418 143.87 77.5795 143.87 77.1506C143.87 76.7812 143.941 76.4773 144.083 76.2386C144.225 76 144.417 75.8111 144.658 75.6719C144.9 75.5327 145.17 75.4276 145.468 75.3565C145.766 75.2855 146.07 75.2315 146.38 75.1946C146.772 75.1491 147.09 75.1122 147.335 75.0838C147.579 75.0526 147.756 75.0028 147.867 74.9347C147.978 74.8665 148.033 74.7557 148.033 74.6023V74.5724C148.033 74.2003 147.928 73.9119 147.718 73.7074C147.511 73.5028 147.201 73.4006 146.789 73.4006C146.36 73.4006 146.022 73.4957 145.775 73.6861C145.531 73.8736 145.362 74.0824 145.268 74.3125L144.07 74.0398C144.212 73.642 144.42 73.321 144.692 73.0767C144.968 72.8295 145.285 72.6506 145.643 72.5398C146.001 72.4261 146.377 72.3693 146.772 72.3693C147.033 72.3693 147.31 72.4006 147.603 72.4631C147.898 72.5227 148.174 72.6335 148.43 72.7955C148.688 72.9574 148.9 73.1889 149.065 73.4901C149.229 73.7884 149.312 74.1761 149.312 74.6534V79H148.067V78.1051H148.016C147.934 78.2699 147.81 78.4318 147.646 78.5909C147.481 78.75 147.269 78.8821 147.011 78.9872C146.752 79.0923 146.442 79.1449 146.082 79.1449ZM146.359 78.1222C146.711 78.1222 147.012 78.0526 147.262 77.9134C147.515 77.7741 147.707 77.5923 147.837 77.3679C147.971 77.1406 148.038 76.8977 148.038 76.6392V75.7955C147.992 75.8409 147.904 75.8835 147.773 75.9233C147.646 75.9602 147.499 75.9929 147.335 76.0213C147.17 76.0469 147.009 76.071 146.853 76.0938C146.697 76.1136 146.566 76.1307 146.461 76.1449C146.214 76.1761 145.988 76.2287 145.783 76.3026C145.582 76.3764 145.42 76.483 145.298 76.6222C145.178 76.7585 145.119 76.9403 145.119 77.1676C145.119 77.483 145.235 77.7216 145.468 77.8835C145.701 78.0426 145.998 78.1222 146.359 78.1222ZM151.848 79.081C151.615 79.081 151.415 78.9986 151.248 78.8338C151.08 78.6662 150.996 78.4645 150.996 78.2287C150.996 77.9957 151.08 77.7969 151.248 77.6321C151.415 77.4645 151.615 77.3807 151.848 77.3807C152.081 77.3807 152.282 77.4645 152.449 77.6321C152.617 77.7969 152.701 77.9957 152.701 78.2287C152.701 78.3849 152.661 78.5284 152.581 78.6591C152.505 78.7869 152.402 78.8892 152.275 78.9659C152.147 79.0426 152.005 79.081 151.848 79.081ZM157.164 79.1321C156.551 79.1321 156.015 78.9915 155.558 78.7102C155.1 78.429 154.745 78.0355 154.493 77.5298C154.24 77.0241 154.113 76.4332 154.113 75.7571C154.113 75.0781 154.24 74.4844 154.493 73.9759C154.745 73.4673 155.1 73.0724 155.558 72.7912C156.015 72.5099 156.551 72.3693 157.164 72.3693C157.778 72.3693 158.314 72.5099 158.771 72.7912C159.228 73.0724 159.583 73.4673 159.836 73.9759C160.089 74.4844 160.216 75.0781 160.216 75.7571C160.216 76.4332 160.089 77.0241 159.836 77.5298C159.583 78.0355 159.228 78.429 158.771 78.7102C158.314 78.9915 157.778 79.1321 157.164 79.1321ZM157.169 78.0625C157.566 78.0625 157.896 77.9574 158.157 77.7472C158.419 77.5369 158.612 77.2571 158.737 76.9077C158.865 76.5582 158.929 76.1733 158.929 75.7528C158.929 75.3352 158.865 74.9517 158.737 74.6023C158.612 74.25 158.419 73.9673 158.157 73.7543C157.896 73.5412 157.566 73.4347 157.169 73.4347C156.768 73.4347 156.436 73.5412 156.172 73.7543C155.91 73.9673 155.716 74.25 155.588 74.6023C155.463 74.9517 155.4 75.3352 155.4 75.7528C155.4 76.1733 155.463 76.5582 155.588 76.9077C155.716 77.2571 155.91 77.5369 156.172 77.7472C156.436 77.9574 156.768 78.0625 157.169 78.0625ZM161.638 79V72.4545H162.869V73.4943H162.938C163.057 73.142 163.267 72.8651 163.568 72.6634C163.872 72.4588 164.216 72.3565 164.599 72.3565C164.679 72.3565 164.773 72.3594 164.881 72.3651C164.991 72.3707 165.078 72.3778 165.141 72.3864V73.6051C165.089 73.5909 164.999 73.5753 164.868 73.5582C164.737 73.5384 164.607 73.5284 164.476 73.5284C164.175 73.5284 163.906 73.5923 163.67 73.7202C163.438 73.8452 163.253 74.0199 163.116 74.2443C162.98 74.4659 162.912 74.7187 162.912 75.0028V79H161.638ZM168.753 81.5909C168.233 81.5909 167.786 81.5227 167.411 81.3864C167.039 81.25 166.735 81.0696 166.499 80.8452C166.263 80.6207 166.087 80.375 165.971 80.108L167.066 79.6562C167.142 79.7812 167.245 79.9134 167.373 80.0526C167.503 80.1946 167.679 80.3153 167.901 80.4148C168.125 80.5142 168.414 80.5639 168.766 80.5639C169.249 80.5639 169.648 80.446 169.963 80.2102C170.279 79.9773 170.436 79.6051 170.436 79.0938V77.8068H170.355C170.279 77.946 170.168 78.1009 170.023 78.2713C169.881 78.4418 169.685 78.5895 169.435 78.7145C169.185 78.8395 168.86 78.902 168.459 78.902C167.942 78.902 167.476 78.7812 167.061 78.5398C166.65 78.2955 166.323 77.9361 166.081 77.4616C165.843 76.9844 165.723 76.3977 165.723 75.7017C165.723 75.0057 165.841 74.4091 166.077 73.9119C166.316 73.4148 166.642 73.0341 167.057 72.7699C167.472 72.5028 167.942 72.3693 168.468 72.3693C168.874 72.3693 169.202 72.4375 169.452 72.5739C169.702 72.7074 169.897 72.8636 170.036 73.0426C170.178 73.2216 170.287 73.3793 170.364 73.5156H170.458V72.4545H171.706V79.1449C171.706 79.7074 171.576 80.169 171.314 80.5298C171.053 80.8906 170.699 81.1577 170.253 81.331C169.81 81.5043 169.31 81.5909 168.753 81.5909ZM168.74 77.8452C169.107 77.8452 169.417 77.7599 169.669 77.5895C169.925 77.4162 170.118 77.169 170.249 76.848C170.382 76.5241 170.449 76.1364 170.449 75.6847C170.449 75.2443 170.384 74.8565 170.253 74.5213C170.123 74.1861 169.931 73.9247 169.678 73.7372C169.425 73.5469 169.113 73.4517 168.74 73.4517C168.357 73.4517 168.037 73.5511 167.782 73.75C167.526 73.946 167.333 74.2131 167.202 74.5511C167.074 74.8892 167.01 75.267 167.01 75.6847C167.01 76.1136 167.076 76.4901 167.206 76.8139C167.337 77.1378 167.53 77.3906 167.786 77.5724C168.044 77.7543 168.363 77.8452 168.74 77.8452ZM176.739 69.8636L173.926 80.3125H172.789L175.601 69.8636H176.739ZM179.24 79L177.314 72.4545H178.631L179.914 77.2614H179.978L181.265 72.4545H182.581L183.86 77.2401H183.924L185.198 72.4545H186.515L184.593 79H183.293L181.963 74.2741H181.865L180.536 79H179.24ZM187.724 79V72.4545H188.998V79H187.724ZM188.367 71.4446C188.146 71.4446 187.955 71.3707 187.796 71.223C187.64 71.0724 187.562 70.8935 187.562 70.6861C187.562 70.4759 187.64 70.2969 187.796 70.1491C187.955 69.9986 188.146 69.9233 188.367 69.9233C188.589 69.9233 188.778 69.9986 188.934 70.1491C189.093 70.2969 189.173 70.4759 189.173 70.6861C189.173 70.8935 189.093 71.0724 188.934 71.223C188.778 71.3707 188.589 71.4446 188.367 71.4446ZM191.884 76.7798L191.875 75.2244H192.097L194.705 72.4545H196.23L193.256 75.608H193.056L191.884 76.7798ZM190.712 79V70.2727H191.986V79H190.712ZM194.846 79L192.502 75.8892L193.38 74.9986L196.409 79H194.846ZM197.392 79V72.4545H198.666V79H197.392ZM198.035 71.4446C197.814 71.4446 197.623 71.3707 197.464 71.223C197.308 71.0724 197.23 70.8935 197.23 70.6861C197.23 70.4759 197.308 70.2969 197.464 70.1491C197.623 69.9986 197.814 69.9233 198.035 69.9233C198.257 69.9233 198.446 69.9986 198.602 70.1491C198.761 70.2969 198.841 70.4759 198.841 70.6861C198.841 70.8935 198.761 71.0724 198.602 71.223C198.446 71.3707 198.257 71.4446 198.035 71.4446Z" fill="#528BFF"/>
<g clip-path="url(#clip1_1_10018)">
<path d="M214.5 73.5L214.5 70.5M214.5 70.5H211.5M214.5 70.5L210 75M209 70.5H207.9C207.06 70.5 206.64 70.5 206.319 70.6635C206.037 70.8073 205.807 71.0368 205.663 71.319C205.5 71.6399 205.5 72.0599 205.5 72.9V77.1C205.5 77.9401 205.5 78.3601 205.663 78.681C205.807 78.9632 206.037 79.1927 206.319 79.3365C206.64 79.5 207.06 79.5 207.9 79.5H212.1C212.94 79.5 213.36 79.5 213.681 79.3365C213.963 79.1927 214.193 78.9632 214.337 78.681C214.5 78.3601 214.5 77.9401 214.5 77.1V76" stroke="#528BFF" stroke-linecap="round" stroke-linejoin="round" stroke-width="1.5"/>
</g>
<g filter="url(#filter1_d_1_10018)">
<rect fill="white" height="36" rx="8" width="242" x="36" y="94"/>
<path d="M118.312 117H116.343L119.928 106.818H122.205L125.794 117H123.825L121.106 108.906H121.026L118.312 117ZM118.376 113.008H123.746V114.489H118.376V113.008ZM129.657 117.134C129.057 117.134 128.52 116.98 128.046 116.672C127.572 116.364 127.198 115.916 126.923 115.33C126.647 114.743 126.51 114.03 126.51 113.192C126.51 112.343 126.649 111.627 126.928 111.044C127.209 110.457 127.589 110.015 128.066 109.717C128.543 109.415 129.075 109.264 129.662 109.264C130.109 109.264 130.477 109.34 130.766 109.493C131.054 109.642 131.283 109.823 131.452 110.035C131.621 110.244 131.752 110.441 131.844 110.626H131.919V106.818H133.724V117H131.954V115.797H131.844C131.752 115.982 131.617 116.18 131.442 116.388C131.266 116.594 131.034 116.77 130.746 116.915C130.457 117.061 130.094 117.134 129.657 117.134ZM130.159 115.658C130.54 115.658 130.865 115.555 131.134 115.349C131.402 115.141 131.606 114.851 131.745 114.479C131.884 114.108 131.954 113.676 131.954 113.182C131.954 112.688 131.884 112.259 131.745 111.894C131.609 111.53 131.407 111.246 131.138 111.044C130.873 110.842 130.547 110.741 130.159 110.741C129.758 110.741 129.423 110.845 129.155 111.054C128.886 111.263 128.684 111.551 128.548 111.919C128.412 112.287 128.344 112.708 128.344 113.182C128.344 113.659 128.412 114.085 128.548 114.46C128.688 114.831 128.891 115.124 129.16 115.339C129.432 115.552 129.765 115.658 130.159 115.658ZM138.475 117.134C137.875 117.134 137.338 116.98 136.865 116.672C136.391 116.364 136.016 115.916 135.741 115.33C135.466 114.743 135.328 114.03 135.328 113.192C135.328 112.343 135.468 111.627 135.746 111.044C136.028 110.457 136.407 110.015 136.884 109.717C137.362 109.415 137.894 109.264 138.48 109.264C138.928 109.264 139.296 109.34 139.584 109.493C139.872 109.642 140.101 109.823 140.27 110.035C140.439 110.244 140.57 110.441 140.663 110.626H140.737V106.818H142.542V117H140.772V115.797H140.663C140.57 115.982 140.436 116.18 140.26 116.388C140.084 116.594 139.852 116.77 139.564 116.915C139.276 117.061 138.913 117.134 138.475 117.134ZM138.977 115.658C139.359 115.658 139.683 115.555 139.952 115.349C140.22 115.141 140.424 114.851 140.563 114.479C140.703 114.108 140.772 113.676 140.772 113.182C140.772 112.688 140.703 112.259 140.563 111.894C140.427 111.53 140.225 111.246 139.957 111.044C139.692 110.842 139.365 110.741 138.977 110.741C138.576 110.741 138.242 110.845 137.973 111.054C137.705 111.263 137.503 111.551 137.367 111.919C137.231 112.287 137.163 112.708 137.163 113.182C137.163 113.659 137.231 114.085 137.367 114.46C137.506 114.831 137.71 115.124 137.978 115.339C138.25 115.552 138.583 115.658 138.977 115.658ZM151.746 109.364V110.756H147.356V109.364H151.746ZM148.44 107.534H150.239V114.703C150.239 114.945 150.276 115.131 150.349 115.26C150.425 115.386 150.524 115.472 150.647 115.518C150.77 115.565 150.906 115.588 151.055 115.588C151.167 115.588 151.27 115.58 151.363 115.563C151.459 115.547 151.532 115.532 151.582 115.518L151.885 116.925C151.789 116.959 151.651 116.995 151.472 117.035C151.297 117.075 151.081 117.098 150.826 117.104C150.375 117.118 149.969 117.05 149.608 116.901C149.247 116.748 148.96 116.513 148.748 116.195C148.539 115.876 148.436 115.479 148.44 115.001V107.534ZM156.5 117.149C155.754 117.149 155.108 116.985 154.561 116.657C154.014 116.329 153.59 115.87 153.288 115.28C152.99 114.69 152.841 114 152.841 113.212C152.841 112.423 152.99 111.732 153.288 111.138C153.59 110.545 154.014 110.085 154.561 109.756C155.108 109.428 155.754 109.264 156.5 109.264C157.246 109.264 157.892 109.428 158.439 109.756C158.986 110.085 159.408 110.545 159.706 111.138C160.008 111.732 160.159 112.423 160.159 113.212C160.159 114 160.008 114.69 159.706 115.28C159.408 115.87 158.986 116.329 158.439 116.657C157.892 116.985 157.246 117.149 156.5 117.149ZM156.51 115.707C156.914 115.707 157.252 115.596 157.524 115.374C157.796 115.149 157.998 114.847 158.131 114.469C158.266 114.092 158.334 113.671 158.334 113.207C158.334 112.739 158.266 112.317 158.131 111.939C157.998 111.558 157.796 111.254 157.524 111.029C157.252 110.804 156.914 110.691 156.51 110.691C156.095 110.691 155.751 110.804 155.476 111.029C155.204 111.254 155 111.558 154.864 111.939C154.732 112.317 154.665 112.739 154.665 113.207C154.665 113.671 154.732 114.092 154.864 114.469C155 114.847 155.204 115.149 155.476 115.374C155.751 115.596 156.095 115.707 156.51 115.707ZM170.772 109.617C170.726 109.183 170.53 108.845 170.185 108.603C169.844 108.361 169.4 108.24 168.853 108.24C168.469 108.24 168.139 108.298 167.864 108.414C167.589 108.53 167.378 108.687 167.232 108.886C167.086 109.085 167.012 109.312 167.009 109.567C167.009 109.78 167.057 109.964 167.153 110.119C167.252 110.275 167.386 110.408 167.555 110.517C167.724 110.623 167.912 110.713 168.117 110.786C168.323 110.858 168.53 110.92 168.739 110.969L169.693 111.208C170.078 111.298 170.447 111.419 170.802 111.571C171.16 111.723 171.48 111.916 171.761 112.148C172.046 112.38 172.272 112.66 172.438 112.988C172.603 113.316 172.686 113.701 172.686 114.141C172.686 114.738 172.534 115.263 172.229 115.717C171.924 116.168 171.483 116.521 170.906 116.776C170.333 117.028 169.638 117.154 168.823 117.154C168.031 117.154 167.343 117.031 166.76 116.786C166.18 116.541 165.726 116.183 165.398 115.712C165.073 115.242 164.897 114.668 164.871 113.992H166.685C166.712 114.347 166.821 114.642 167.013 114.877C167.206 115.112 167.456 115.288 167.764 115.404C168.076 115.52 168.424 115.578 168.808 115.578C169.209 115.578 169.561 115.518 169.862 115.399C170.167 115.277 170.406 115.107 170.578 114.892C170.75 114.673 170.838 114.418 170.842 114.126C170.838 113.861 170.76 113.643 170.608 113.47C170.455 113.295 170.242 113.149 169.967 113.033C169.695 112.913 169.377 112.807 169.012 112.714L167.854 112.416C167.015 112.201 166.352 111.874 165.865 111.437C165.381 110.996 165.139 110.411 165.139 109.682C165.139 109.082 165.302 108.557 165.626 108.106C165.955 107.655 166.4 107.305 166.964 107.057C167.527 106.805 168.165 106.679 168.878 106.679C169.6 106.679 170.233 106.805 170.777 107.057C171.324 107.305 171.753 107.652 172.065 108.096C172.376 108.537 172.537 109.044 172.547 109.617H170.772ZM176.051 106.818V117H174.251V106.818H176.051ZM177.901 117V109.364H179.701V117H177.901ZM178.806 108.28C178.521 108.28 178.276 108.185 178.07 107.996C177.865 107.804 177.762 107.574 177.762 107.305C177.762 107.034 177.865 106.803 178.07 106.614C178.276 106.422 178.521 106.326 178.806 106.326C179.094 106.326 179.34 106.422 179.542 106.614C179.747 106.803 179.85 107.034 179.85 107.305C179.85 107.574 179.747 107.804 179.542 107.996C179.34 108.185 179.094 108.28 178.806 108.28ZM184.385 117.134C183.786 117.134 183.249 116.98 182.775 116.672C182.301 116.364 181.926 115.916 181.651 115.33C181.376 114.743 181.238 114.03 181.238 113.192C181.238 112.343 181.378 111.627 181.656 111.044C181.938 110.457 182.317 110.015 182.795 109.717C183.272 109.415 183.804 109.264 184.39 109.264C184.838 109.264 185.206 109.34 185.494 109.493C185.782 109.642 186.011 109.823 186.18 110.035C186.349 110.244 186.48 110.441 186.573 110.626H186.648V106.818H188.452V117H186.682V115.797H186.573C186.48 115.982 186.346 116.18 186.17 116.388C185.995 116.594 185.763 116.77 185.474 116.915C185.186 117.061 184.823 117.134 184.385 117.134ZM184.888 115.658C185.269 115.658 185.594 115.555 185.862 115.349C186.131 115.141 186.334 114.851 186.474 114.479C186.613 114.108 186.682 113.676 186.682 113.182C186.682 112.688 186.613 112.259 186.474 111.894C186.338 111.53 186.135 111.246 185.867 111.044C185.602 110.842 185.275 110.741 184.888 110.741C184.487 110.741 184.152 110.845 183.883 111.054C183.615 111.263 183.413 111.551 183.277 111.919C183.141 112.287 183.073 112.708 183.073 113.182C183.073 113.659 183.141 114.085 183.277 114.46C183.416 114.831 183.62 115.124 183.888 115.339C184.16 115.552 184.493 115.658 184.888 115.658ZM193.751 117.149C192.985 117.149 192.324 116.99 191.767 116.672C191.214 116.35 190.788 115.896 190.489 115.31C190.191 114.72 190.042 114.025 190.042 113.227C190.042 112.441 190.191 111.752 190.489 111.158C190.791 110.562 191.212 110.098 191.752 109.766C192.292 109.432 192.927 109.264 193.656 109.264C194.127 109.264 194.571 109.34 194.989 109.493C195.41 109.642 195.781 109.874 196.102 110.189C196.427 110.504 196.682 110.905 196.868 111.392C197.054 111.876 197.146 112.453 197.146 113.122V113.674H190.887V112.461H195.421C195.418 112.116 195.343 111.81 195.197 111.541C195.052 111.269 194.848 111.056 194.586 110.9C194.327 110.744 194.026 110.666 193.681 110.666C193.313 110.666 192.99 110.756 192.712 110.935C192.433 111.11 192.216 111.342 192.06 111.631C191.908 111.916 191.83 112.229 191.827 112.57V113.629C191.827 114.073 191.908 114.455 192.07 114.773C192.233 115.088 192.46 115.33 192.751 115.499C193.043 115.664 193.384 115.747 193.776 115.747C194.037 115.747 194.274 115.711 194.487 115.638C194.699 115.562 194.883 115.451 195.038 115.305C195.194 115.159 195.312 114.978 195.391 114.763L197.072 114.952C196.966 115.396 196.763 115.784 196.465 116.115C196.17 116.443 195.792 116.698 195.332 116.881C194.871 117.06 194.344 117.149 193.751 117.149Z" fill="#667085"/>
<rect height="35" rx="7.5" stroke="#B2CCFF" width="241" x="36.5" y="94.5"/>
</g>
</g>
<rect fill="url(#paint0_linear_1_10018)" height="57" transform="matrix(1 0 0 -1 0 136)" width="248"/>
</g>
<defs>
<filter color-interpolation-filters="sRGB" filterUnits="userSpaceOnUse" height="196" id="filter0_d_1_10018" width="346" x="-16" y="8">
<feFlood flood-opacity="0" result="BackgroundImageFix"/>
<feColorMatrix in="SourceAlpha" result="hardAlpha" type="matrix" values="0 0 0 0 0 0 0 0 0 0 0 0 0 0 0 0 0 0 127 0"/>
<feMorphology in="SourceAlpha" operator="erode" radius="12" result="effect1_dropShadow_1_10018"/>
<feOffset dy="24"/>
<feGaussianBlur stdDeviation="24"/>
<feColorMatrix type="matrix" values="0 0 0 0 0.0625882 0 0 0 0 0.0926346 0 0 0 0 0.15702 0 0 0 0.18 0"/>
<feBlend in2="BackgroundImageFix" mode="normal" result="effect1_dropShadow_1_10018"/>
<feBlend in="SourceGraphic" in2="effect1_dropShadow_1_10018" mode="normal" result="shape"/>
</filter>
<filter color-interpolation-filters="sRGB" filterUnits="userSpaceOnUse" height="40" id="filter1_d_1_10018" width="246" x="34" y="93">
<feFlood flood-opacity="0" result="BackgroundImageFix"/>
<feColorMatrix in="SourceAlpha" result="hardAlpha" type="matrix" values="0 0 0 0 0 0 0 0 0 0 0 0 0 0 0 0 0 0 127 0"/>
<feOffset dy="1"/>
<feGaussianBlur stdDeviation="1"/>
<feColorMatrix type="matrix" values="0 0 0 0 0.0627451 0 0 0 0 0.0941176 0 0 0 0 0.156863 0 0 0 0.05 0"/>
<feBlend in2="BackgroundImageFix" mode="normal" result="effect1_dropShadow_1_10018"/>
<feBlend in="SourceGraphic" in2="effect1_dropShadow_1_10018" mode="normal" result="shape"/>
</filter>
<linearGradient gradientUnits="userSpaceOnUse" id="paint0_linear_1_10018" x1="124" x2="124" y1="0" y2="57">
<stop stop-color="#DFECFF" stop-opacity="0.65"/>
<stop offset="1" stop-color="white" stop-opacity="0"/>
</linearGradient>
<clipPath id="clip0_1_10018">
<rect fill="white" height="144" rx="16" width="270"/>
</clipPath>
<clipPath id="clip1_1_10018">
<rect fill="white" height="12" transform="translate(204 69)" width="12"/>
</clipPath>
</defs>
</svg>